# Blender 4.5.0
# www.blender.org
mtllib StartLine.mtl
o Plane.001
v -2.641423 5.660008 -6.230147
v -2.641421 5.660008 6.230147
v -2.641423 7.851818 -6.230147
v -2.641421 7.851818 6.230147
v -0.086096 5.567253 11.898175
v -0.086096 5.734592 11.898175
v -0.086103 5.567251 -11.898177
v -0.086103 5.734590 -11.898177
v 0.086103 5.567253 11.898175
v 0.086103 5.734592 11.898175
v 0.086097 5.567251 -11.898177
v 0.086097 5.734590 -11.898177
v -0.086096 7.781381 11.898175
v -0.086097 7.948720 11.898175
v -0.086103 7.781379 -11.898177
v -0.086103 7.948718 -11.898177
v 0.086103 7.781381 11.898175
v 0.086103 7.948720 11.898175
v 0.086097 7.781379 -11.898177
v 0.086097 7.948718 -11.898177
v -0.060081 5.632383 11.152811
v -0.060081 5.674954 11.188533
v -0.060082 7.839454 8.522527
v -0.060082 7.882025 8.558248
v 0.060088 5.632383 11.152811
v 0.060088 5.674954 11.188533
v 0.060087 7.839454 8.522527
v 0.060087 7.882025 8.558248
v -0.060635 5.632383 9.367504
v -0.060635 5.674954 9.403225
v -0.060636 7.839454 6.737220
v -0.060636 7.882025 6.772941
v 0.060640 5.632383 9.367504
v 0.060640 5.674954 9.403225
v 0.060639 7.839454 6.737220
v 0.060639 7.882025 6.772941
v -0.060086 7.839453 -6.859727
v -0.060086 7.882023 -6.895447
v -0.060087 5.632381 -9.490011
v -0.060087 5.674953 -9.525732
v 0.060083 7.839453 -6.859727
v 0.060083 7.882023 -6.895447
v 0.060082 5.632381 -9.490011
v 0.060082 5.674953 -9.525732
v -0.060640 7.839453 -8.645035
v -0.060640 7.882023 -8.680756
v -0.060640 5.632381 -11.275319
v -0.060640 5.674952 -11.311040
v 0.060635 7.839453 -8.645035
v 0.060635 7.882023 -8.680756
v 0.060635 5.632381 -11.275319
v 0.060635 5.674952 -11.311040
v -0.090567 0.035695 11.684950
v -0.090567 0.035695 11.874828
v -0.090568 7.826371 11.684949
v -0.090568 7.826371 11.874827
v 0.090720 0.035695 11.684950
v 0.090720 0.035695 11.874828
v 0.090719 7.826371 11.684949
v 0.090719 7.826371 11.874827
v -0.091868 -0.001538 -11.892148
v -0.091868 -0.001538 -11.695661
v -0.091868 7.791667 -11.892148
v -0.091868 7.791667 -11.695662
v 0.091863 -0.001538 -11.892148
v 0.091863 -0.001538 -11.695661
v 0.091862 7.791667 -11.892148
v 0.091862 7.791667 -11.695662
v -2.727519 5.567253 11.898176
v -2.727519 5.734591 11.898176
v -2.727525 5.567251 -11.898176
v -2.727525 5.734590 -11.898176
v -2.555319 5.567253 11.898176
v -2.555319 5.734591 11.898176
v -2.555326 5.567251 -11.898176
v -2.555326 5.734590 -11.898176
v -2.727519 7.781381 11.898176
v -2.727519 7.948720 11.898176
v -2.727525 7.781379 -11.898176
v -2.727525 7.948718 -11.898176
v -2.555319 7.781381 11.898176
v -2.555319 7.948720 11.898176
v -2.555326 7.781379 -11.898176
v -2.555326 7.948718 -11.898176
v -2.701504 5.632383 11.152812
v -2.701504 5.674954 11.188534
v -2.701504 7.839454 8.522528
v -2.701504 7.882024 8.558249
v -2.581335 5.632383 11.152812
v -2.581335 5.674954 11.188534
v -2.581335 7.839454 8.522528
v -2.581335 7.882024 8.558249
v -2.702057 5.632383 9.367505
v -2.702057 5.674953 9.403226
v -2.702058 7.839454 6.737220
v -2.702058 7.882024 6.772942
v -2.580782 5.632383 9.367505
v -2.580782 5.674953 9.403226
v -2.580783 7.839454 6.737220
v -2.580783 7.882024 6.772942
v -2.701509 7.839453 -6.859726
v -2.701509 7.882023 -6.895447
v -2.701509 5.632381 -9.490010
v -2.701509 5.674952 -9.525731
v -2.581340 7.839453 -6.859726
v -2.581340 7.882023 -6.895447
v -2.581340 5.632381 -9.490010
v -2.581340 5.674952 -9.525731
v -2.702062 7.839452 -8.645034
v -2.702062 7.882023 -8.680755
v -2.702063 5.632381 -11.275318
v -2.702063 5.674952 -11.311039
v -2.580787 7.839452 -8.645034
v -2.580787 7.882023 -8.680755
v -2.580788 5.632381 -11.275318
v -2.580788 5.674952 -11.311039
v -2.697381 0.035695 11.684951
v -2.697381 0.035695 11.874829
v -2.697381 7.826371 11.684950
v -2.697381 7.826371 11.874828
v -2.516093 0.035695 11.684951
v -2.516093 0.035695 11.874829
v -2.516094 7.826371 11.684950
v -2.516094 7.826371 11.874828
v -2.733290 -0.001538 -11.892147
v -2.733290 -0.001538 -11.695660
v -2.733291 7.791667 -11.892147
v -2.733291 7.791667 -11.695661
v -2.549560 -0.001538 -11.892147
v -2.549560 -0.001538 -11.695660
v -2.549560 7.791667 -11.892147
v -2.549560 7.791667 -11.695661
v -2.626097 3.687849 -11.835380
v -2.590376 3.730419 -11.835380
v 0.004188 1.480778 -11.835381
v 0.039909 1.523349 -11.835381
v -2.626097 3.687849 -11.715211
v -2.590376 3.730419 -11.715211
v 0.004188 1.480778 -11.715212
v 0.039909 1.523349 -11.715212
v -2.590376 4.940441 -11.835380
v -2.626097 4.983012 -11.835380
v 0.039908 7.147512 -11.835381
v 0.004188 7.190083 -11.835381
v -2.590376 4.940441 -11.715211
v -2.626097 4.983012 -11.715211
v 0.039908 7.147512 -11.715212
v 0.004188 7.190083 -11.715212
v -2.646365 7.854707 -11.854261
v -2.646365 7.910279 -11.854261
v 0.060177 7.854707 -11.854262
v 0.060177 7.910279 -11.854262
v -2.646365 7.854707 -11.734093
v -2.646365 7.910279 -11.734093
v 0.060177 7.854707 -11.734094
v 0.060177 7.910279 -11.734094
v -2.646365 5.598475 -11.854261
v -2.646365 5.702062 -11.854261
v 0.060177 5.598476 -11.854262
v 0.060177 5.702062 -11.854262
v -2.646365 5.598475 -11.734093
v -2.646365 5.702062 -11.734093
v 0.060177 5.598476 -11.734094
v 0.060177 5.702062 -11.734094
v -2.646359 7.854709 11.756552
v -2.646359 7.910281 11.756552
v 0.060183 7.854709 11.756551
v 0.060183 7.910281 11.756551
v -2.646359 7.854709 11.876721
v -2.646359 7.910281 11.876721
v 0.060183 7.854709 11.876720
v 0.060183 7.910281 11.876720
v -2.646358 5.598477 11.756552
v -2.646358 5.702064 11.756552
v 0.060183 5.598478 11.756551
v 0.060183 5.702064 11.756551
v -2.646358 5.598477 11.876721
v -2.646358 5.702064 11.876721
v 0.060183 5.598478 11.876720
v 0.060183 5.702064 11.876720
v -2.626091 3.687851 11.719966
v -2.590369 3.730422 11.719966
v 0.004194 1.480780 11.719965
v 0.039916 1.523351 11.719965
v -2.626091 3.687851 11.840135
v -2.590369 3.730422 11.840135
v 0.004194 1.480780 11.840134
v 0.039916 1.523351 11.840134
v -2.590369 4.940443 11.719966
v -2.626091 4.983014 11.719966
v 0.039915 7.147514 11.719965
v 0.004194 7.190085 11.719965
v -2.590369 4.940443 11.840135
v -2.626091 4.983014 11.840135
v 0.039915 7.147514 11.840134
v 0.004194 7.190085 11.840134
v 0.000002 5.739028 6.495908
v -0.000001 5.739025 -6.495909
v 0.000001 7.772800 6.495908
v -0.000001 7.772798 -6.495909
vn -1.0000 -0.0000 -0.0000
vn -0.0000 -0.0000 -1.0000
vn 1.0000 -0.0000 -0.0000
vn -0.0000 -0.0000 1.0000
vn -0.0000 -1.0000 -0.0000
vn -0.0000 1.0000 -0.0000
vn -0.0000 0.6428 -0.7660
vn -0.0000 -0.6428 0.7660
vn -0.0000 -0.7660 -0.6428
vn -0.0000 0.7660 0.6428
vn -0.0000 -0.6428 -0.7660
vn -0.0000 0.6428 0.7661
vn -0.0000 -0.7660 0.6428
vn -0.0000 0.7660 -0.6428
vn -0.0000 0.6428 0.7660
vn 0.7660 -0.6428 -0.0000
vn -0.7660 0.6428 -0.0000
vn -0.6428 -0.7660 -0.0000
vn 0.6428 0.7660 -0.0000
vn 0.7660 0.6428 -0.0000
vn -0.7660 -0.6428 -0.0000
vn 0.6428 -0.7660 -0.0000
vn -0.6428 0.7660 -0.0000
vt 0.000000 0.000000
vt 1.000000 0.000000
vt 1.000000 1.000000
vt 0.000000 1.000000
vt 0.375000 0.000000
vt 0.625000 0.000000
vt 0.625000 0.250000
vt 0.375000 0.250000
vt 0.625000 0.500000
vt 0.375000 0.500000
vt 0.625000 0.750000
vt 0.375000 0.750000
vt 0.625000 1.000000
vt 0.375000 1.000000
vt 0.125000 0.500000
vt 0.125000 0.750000
vt 0.875000 0.500000
vt 0.875000 0.750000
s 1
usemtl Start
f 1/1/1 2/2/1 4/3/1 3/4/1
usemtl Steal
f 5/5/1 6/6/1 8/7/1 7/8/1
f 7/8/2 8/7/2 12/9/2 11/10/2
f 11/10/3 12/9/3 10/11/3 9/12/3
f 9/12/4 10/11/4 6/13/4 5/14/4
f 7/15/5 11/10/5 9/12/5 5/16/5
f 12/9/6 8/17/6 6/18/6 10/11/6
f 13/5/1 14/6/1 16/7/1 15/8/1
f 15/8/2 16/7/2 20/9/2 19/10/2
f 19/10/3 20/9/3 18/11/3 17/12/3
f 17/12/4 18/11/4 14/13/4 13/14/4
f 15/15/5 19/10/5 17/12/5 13/16/5
f 20/9/6 16/17/6 14/18/6 18/11/6
f 21/5/1 22/6/1 24/7/1 23/8/1
f 23/8/7 24/7/7 28/9/7 27/10/7
f 27/10/3 28/9/3 26/11/3 25/12/3
f 25/12/8 26/11/8 22/13/8 21/14/8
f 23/15/9 27/10/9 25/12/9 21/16/9
f 28/9/10 24/17/10 22/18/10 26/11/10
f 29/5/1 30/6/1 32/7/1 31/8/1
f 31/8/7 32/7/7 36/9/7 35/10/7
f 35/10/3 36/9/3 34/11/3 33/12/3
f 33/12/8 34/11/8 30/13/8 29/14/8
f 31/15/9 35/10/9 33/12/9 29/16/9
f 36/9/10 32/17/10 30/18/10 34/11/10
f 37/5/1 38/6/1 40/7/1 39/8/1
f 39/8/11 40/7/11 44/9/11 43/10/11
f 43/10/3 44/9/3 42/11/3 41/12/3
f 41/12/12 42/11/12 38/13/12 37/14/12
f 39/15/13 43/10/13 41/12/13 37/16/13
f 44/9/14 40/17/14 38/18/14 42/11/14
f 45/5/1 46/6/1 48/7/1 47/8/1
f 47/8/11 48/7/11 52/9/11 51/10/11
f 51/10/3 52/9/3 50/11/3 49/12/3
f 49/12/15 50/11/15 46/13/15 45/14/15
f 47/15/13 51/10/13 49/12/13 45/16/13
f 52/9/14 48/17/14 46/18/14 50/11/14
f 53/5/1 54/6/1 56/7/1 55/8/1
f 55/8/6 56/7/6 60/9/6 59/10/6
f 59/10/3 60/9/3 58/11/3 57/12/3
f 57/12/5 58/11/5 54/13/5 53/14/5
f 55/15/2 59/10/2 57/12/2 53/16/2
f 60/9/4 56/17/4 54/18/4 58/11/4
f 61/5/1 62/6/1 64/7/1 63/8/1
f 63/8/6 64/7/6 68/9/6 67/10/6
f 67/10/3 68/9/3 66/11/3 65/12/3
f 65/12/5 66/11/5 62/13/5 61/14/5
f 63/15/2 67/10/2 65/12/2 61/16/2
f 68/9/4 64/17/4 62/18/4 66/11/4
f 69/5/1 70/6/1 72/7/1 71/8/1
f 71/8/2 72/7/2 76/9/2 75/10/2
f 75/10/3 76/9/3 74/11/3 73/12/3
f 73/12/4 74/11/4 70/13/4 69/14/4
f 71/15/5 75/10/5 73/12/5 69/16/5
f 76/9/6 72/17/6 70/18/6 74/11/6
f 77/5/1 78/6/1 80/7/1 79/8/1
f 79/8/2 80/7/2 84/9/2 83/10/2
f 83/10/3 84/9/3 82/11/3 81/12/3
f 81/12/4 82/11/4 78/13/4 77/14/4
f 79/15/5 83/10/5 81/12/5 77/16/5
f 84/9/6 80/17/6 78/18/6 82/11/6
f 85/5/1 86/6/1 88/7/1 87/8/1
f 87/8/7 88/7/7 92/9/7 91/10/7
f 91/10/3 92/9/3 90/11/3 89/12/3
f 89/12/8 90/11/8 86/13/8 85/14/8
f 87/15/9 91/10/9 89/12/9 85/16/9
f 92/9/10 88/17/10 86/18/10 90/11/10
f 93/5/1 94/6/1 96/7/1 95/8/1
f 95/8/7 96/7/7 100/9/7 99/10/7
f 99/10/3 100/9/3 98/11/3 97/12/3
f 97/12/8 98/11/8 94/13/8 93/14/8
f 95/15/9 99/10/9 97/12/9 93/16/9
f 100/9/10 96/17/10 94/18/10 98/11/10
f 101/5/1 102/6/1 104/7/1 103/8/1
f 103/8/11 104/7/11 108/9/11 107/10/11
f 107/10/3 108/9/3 106/11/3 105/12/3
f 105/12/12 106/11/12 102/13/12 101/14/12
f 103/15/13 107/10/13 105/12/13 101/16/13
f 108/9/14 104/17/14 102/18/14 106/11/14
f 109/5/1 110/6/1 112/7/1 111/8/1
f 111/8/11 112/7/11 116/9/11 115/10/11
f 115/10/3 116/9/3 114/11/3 113/12/3
f 113/12/15 114/11/15 110/13/15 109/14/15
f 111/15/13 115/10/13 113/12/13 109/16/13
f 116/9/14 112/17/14 110/18/14 114/11/14
f 117/5/1 118/6/1 120/7/1 119/8/1
f 119/8/6 120/7/6 124/9/6 123/10/6
f 123/10/3 124/9/3 122/11/3 121/12/3
f 121/12/5 122/11/5 118/13/5 117/14/5
f 119/15/2 123/10/2 121/12/2 117/16/2
f 124/9/4 120/17/4 118/18/4 122/11/4
f 125/5/1 126/6/1 128/7/1 127/8/1
f 127/8/6 128/7/6 132/9/6 131/10/6
f 131/10/3 132/9/3 130/11/3 129/12/3
f 129/12/5 130/11/5 126/13/5 125/14/5
f 127/15/2 131/10/2 129/12/2 125/16/2
f 132/9/4 128/17/4 126/18/4 130/11/4
f 133/5/2 134/6/2 136/7/2 135/8/2
f 135/8/16 136/7/16 140/9/16 139/10/16
f 139/10/4 140/9/4 138/11/4 137/12/4
f 137/12/17 138/11/17 134/13/17 133/14/17
f 135/15/18 139/10/18 137/12/18 133/16/18
f 140/9/19 136/17/19 134/18/19 138/11/19
f 141/5/2 142/6/2 144/7/2 143/8/2
f 143/8/20 144/7/20 148/9/20 147/10/20
f 147/10/4 148/9/4 146/11/4 145/12/4
f 145/12/21 146/11/21 142/13/21 141/14/21
f 143/15/22 147/10/22 145/12/22 141/16/22
f 148/9/23 144/17/23 142/18/23 146/11/23
f 149/5/2 150/6/2 152/7/2 151/8/2
f 151/8/3 152/7/3 156/9/3 155/10/3
f 155/10/4 156/9/4 154/11/4 153/12/4
f 153/12/1 154/11/1 150/13/1 149/14/1
f 151/15/5 155/10/5 153/12/5 149/16/5
f 156/9/6 152/17/6 150/18/6 154/11/6
f 157/5/2 158/6/2 160/7/2 159/8/2
f 159/8/3 160/7/3 164/9/3 163/10/3
f 163/10/4 164/9/4 162/11/4 161/12/4
f 161/12/1 162/11/1 158/13/1 157/14/1
f 159/15/5 163/10/5 161/12/5 157/16/5
f 164/9/6 160/17/6 158/18/6 162/11/6
f 165/5/2 166/6/2 168/7/2 167/8/2
f 167/8/3 168/7/3 172/9/3 171/10/3
f 171/10/4 172/9/4 170/11/4 169/12/4
f 169/12/1 170/11/1 166/13/1 165/14/1
f 167/15/5 171/10/5 169/12/5 165/16/5
f 172/9/6 168/17/6 166/18/6 170/11/6
f 173/5/2 174/6/2 176/7/2 175/8/2
f 175/8/3 176/7/3 180/9/3 179/10/3
f 179/10/4 180/9/4 178/11/4 177/12/4
f 177/12/1 178/11/1 174/13/1 173/14/1
f 175/15/5 179/10/5 177/12/5 173/16/5
f 180/9/6 176/17/6 174/18/6 178/11/6
f 181/5/2 182/6/2 184/7/2 183/8/2
f 183/8/16 184/7/16 188/9/16 187/10/16
f 187/10/4 188/9/4 186/11/4 185/12/4
f 185/12/17 186/11/17 182/13/17 181/14/17
f 183/15/18 187/10/18 185/12/18 181/16/18
f 188/9/19 184/17/19 182/18/19 186/11/19
f 189/5/2 190/6/2 192/7/2 191/8/2
f 191/8/20 192/7/20 196/9/20 195/10/20
f 195/10/4 196/9/4 194/11/4 193/12/4
f 193/12/21 194/11/21 190/13/21 189/14/21
f 191/15/22 195/10/22 193/12/22 189/16/22
f 196/9/23 192/17/23 190/18/23 194/11/23
usemtl Finish
f 197/1/3 198/2/3 200/3/3 199/4/3
