# Blender 4.5.0
# www.blender.org
mtllib Blimp.mtl
o Cylinder.001
v 0.155680 -6.055648 -14.936296
v 0.155680 -5.823510 -14.840140
v 0.155680 -5.727355 -14.608003
v 0.155680 -5.823510 -14.375863
v 0.155680 -6.055648 -14.279708
v 0.155680 -6.287787 -14.375863
v 0.155680 -6.383942 -14.608003
v 0.155680 -6.287787 -14.840140
v 0.155680 -6.055648 -14.608003
v 0.000000 -6.055648 -14.936299
v 0.000000 -5.823510 -14.840142
v 0.000000 -5.727355 -14.608005
v 0.000000 -5.823510 -14.375867
v 0.000000 -6.055648 -14.279710
v 0.000000 -6.287787 -14.375867
v 0.000000 -6.383942 -14.608005
v 0.000000 -6.287787 -14.840142
v -0.155680 -6.055648 -14.936296
v -0.155680 -5.823510 -14.840140
v -0.155680 -5.727355 -14.608003
v -0.155680 -5.823510 -14.375863
v -0.155680 -6.055648 -14.279708
v -0.155680 -6.287787 -14.375863
v -0.155680 -6.383942 -14.608003
v -0.155680 -6.287787 -14.840140
v -0.155680 -6.055648 -14.608003
v 4.735042 0.131005 13.973112
v 4.735042 0.131004 11.623766
v 8.520954 0.131005 13.973112
v 7.874170 0.131004 12.371946
v 5.861995 0.131005 17.177895
v 8.520954 0.131005 17.177895
v 8.249583 0.131004 12.955397
v 5.861999 0.131005 13.973112
v 5.861995 0.131004 11.623766
v 7.369792 0.131004 11.937681
v 4.735042 -0.130996 13.973112
v 4.735042 -0.130996 11.623766
v 8.520954 -0.130996 13.973112
v 7.874170 -0.130996 12.371946
v 5.861995 -0.130995 17.177895
v 8.520954 -0.130995 17.177895
v 8.249583 -0.130996 12.955397
v 5.861999 -0.130996 13.973112
v 5.861995 -0.130996 11.623766
v 7.369792 -0.130996 11.937681
v 0.131001 -4.083038 13.973113
v 0.131001 -4.083038 11.623767
v 0.131001 -7.868949 13.973113
v 0.131001 -7.222166 12.371947
v 0.131001 -5.209991 17.177895
v 0.131001 -7.868949 17.177896
v 0.131001 -7.597579 12.955398
v 0.131001 -5.209995 13.973113
v 0.131001 -5.209991 11.623767
v 0.131001 -6.717788 11.937682
v -0.130999 -4.083038 13.973113
v -0.130999 -4.083038 11.623767
v -0.130999 -7.868949 13.973113
v -0.130999 -7.222166 12.371947
v -0.130999 -5.209991 17.177895
v -0.130999 -7.868949 17.177896
v -0.130999 -7.597579 12.955398
v -0.130999 -5.209995 13.973113
v -0.130999 -5.209991 11.623767
v -0.130999 -6.717788 11.937682
v -4.735042 -0.130997 13.973112
v -4.735042 -0.130997 11.623766
v -8.520954 -0.130997 13.973112
v -7.874170 -0.130998 12.371946
v -5.861995 -0.130997 17.177895
v -8.520954 -0.130997 17.177895
v -8.249583 -0.130998 12.955397
v -5.861999 -0.130997 13.973112
v -5.861995 -0.130998 11.623766
v -7.369792 -0.130998 11.937681
v -4.735042 0.131003 13.973112
v -4.735042 0.131002 11.623766
v -8.520954 0.131003 13.973112
v -7.874170 0.131002 12.371946
v -5.861995 0.131004 17.177895
v -8.520954 0.131004 17.177895
v -8.249583 0.131003 12.955397
v -5.861999 0.131003 13.973112
v -5.861995 0.131002 11.623766
v -7.369792 0.131002 11.937681
v 1.670152 -5.962008 -13.448604
v 1.462433 -5.145347 -14.798608
v 1.407211 -6.403513 -13.602738
v 1.199493 -5.549911 -15.050185
v -1.670152 -5.962008 -13.448604
v -1.462433 -5.145347 -14.798608
v 0.000000 -6.226475 -13.357461
v 0.000000 -5.321301 -14.959867
v -1.407211 -6.403513 -13.602738
v -1.199493 -5.549911 -15.050185
v 0.000000 -6.585384 -13.565251
v 0.000000 -5.583580 -15.112025
v -0.131000 4.083047 13.973107
v -0.131000 4.083046 11.623761
v -0.131000 7.868958 13.973107
v -0.131000 7.222174 12.371942
v -0.131000 5.210000 17.177895
v -0.131000 7.868958 17.177893
v -0.131000 7.597586 12.955392
v -0.131000 5.210004 13.973107
v -0.131000 5.210000 11.623761
v -0.131000 6.717795 11.937676
v 0.131000 4.083047 13.973107
v 0.131000 4.083046 11.623761
v 0.131000 7.868958 13.973107
v 0.131000 7.222174 12.371942
v 0.131000 5.210000 17.177895
v 0.131000 7.868958 17.177893
v 0.131000 7.597586 12.955392
v 0.131000 5.210004 13.973107
v 0.131000 5.210000 11.623761
v 0.131000 6.717795 11.937676
v -1.717877 0.708138 18.365393
v 4.383801 -1.807096 15.765497
v 1.717922 0.708138 18.365393
v -0.708134 -1.588375 18.365393
v 0.708179 1.588341 18.365393
v 8.000710 -3.298068 -8.967945
v -1.807099 -4.053228 15.765498
v 1.807100 4.053235 15.765496
v -4.383799 1.807103 15.765497
v 5.215725 -2.150037 -15.411871
v -8.000710 3.298071 -8.967945
v -3.298069 -7.397399 -8.967944
v 3.298069 7.397402 -8.967946
v 2.891687 6.485907 9.692754
v -2.891685 -6.485901 9.692756
v -7.014873 2.891690 9.692755
v 7.014874 -2.891683 9.692755
v 2.891687 -6.485901 9.692756
v -2.891685 6.485907 9.692754
v -3.298069 7.397402 -8.967946
v 3.298069 -7.397399 -8.967944
v -2.318100 -0.955572 -18.293158
v -1.807099 4.053235 15.765496
v 1.807100 -4.053228 15.765498
v -0.708134 1.588341 18.365393
v 0.708179 -1.588375 18.365393
v -2.318100 0.955573 -18.293158
v 7.014874 2.891690 9.692755
v -7.014873 -2.891683 9.692755
v -8.000710 -3.298068 -8.967945
v 0.955572 2.143300 -18.293158
v -4.383799 -1.807096 15.765497
v 8.000710 3.298071 -8.967945
v 4.383801 1.807103 15.765497
v 1.717922 -0.708174 18.365393
v -1.717877 -0.708174 18.365393
v 8.668680 3.573425 0.208898
v 0.955572 -2.143300 -18.293158
v -2.150038 4.822425 -15.411872
v 5.215725 2.150038 -15.411871
v -0.955572 -2.143300 -18.293158
v -8.668679 -3.573419 0.208899
v 3.573422 -8.015000 0.208900
v -3.573421 8.015003 0.208897
v 3.573422 8.015003 0.208897
v -3.573421 -8.015000 0.208900
v -8.668679 3.573425 0.208898
v 8.668680 -3.573419 0.208899
v -2.150038 -4.822423 -15.411870
v 2.318100 0.955573 -18.293158
v -0.955572 2.143300 -18.293158
v 2.150038 -4.822424 -15.411870
v 2.150038 4.822425 -15.411872
v -5.215726 2.150038 -15.411871
v -5.215725 -2.150037 -15.411871
v 2.318100 -0.955572 -18.293158
v -1.334227 1.235698 18.469679
v 1.334294 1.235698 18.469679
v 1.334294 -1.235756 18.469679
v -5.945043 -2.450675 13.192286
v 2.450679 5.496750 13.192285
v 5.945045 -2.450675 13.192286
v -2.450678 -5.496744 13.192286
v 3.354825 -3.272179 15.765497
v 3.354825 3.272185 15.765497
v -3.354823 -3.272179 15.765497
v -3.354823 3.272185 15.765497
v -6.781259 -2.795384 -12.792048
v 2.795385 6.269907 -12.792048
v 6.781259 -2.795384 -12.792048
v -2.795385 -6.269905 -12.792047
v 6.122764 -5.971936 -8.967944
v 5.368327 5.236086 9.692754
v -6.122764 5.971939 -8.967946
v -5.368325 -5.236081 9.692756
v -1.334227 -1.235756 18.469679
v 5.368327 -5.236081 9.692756
v 6.633947 6.470530 0.208897
v -5.368325 5.236086 9.692754
v -6.633947 -6.470525 0.208899
v -3.336642 7.483922 5.212554
v 3.336643 -7.483915 5.212554
v -8.094282 -3.336640 5.212554
v 8.094283 3.336645 5.212553
v -2.450677 5.496750 13.192285
v 2.450679 -5.496744 13.192286
v -2.795385 6.269907 -12.792048
v 2.795385 -6.269905 -12.792047
v 3.336643 7.483922 5.212554
v -3.336642 -7.483915 5.212554
v 0.000001 -6.837167 9.692756
v 0.000001 6.837174 9.692754
v 0.000000 7.798033 -8.967946
v 0.000000 -7.798030 -8.967944
v 0.000000 -5.083598 -15.411870
v 0.000001 4.272752 15.765496
v 0.000001 -4.272744 15.765498
v 0.000027 1.691841 18.327215
v 0.000027 -1.691886 18.327215
v -5.945043 2.450681 13.192286
v 5.945044 2.450681 13.192286
v -6.781260 2.795386 -12.792048
v 6.781259 2.795386 -12.792048
v -8.094282 3.336645 5.212553
v 8.094283 -3.336640 5.212554
v 0.000000 2.415524 -18.106337
v -5.673551 0.000000 -15.411871
v 7.630626 0.000003 9.692755
v -7.630623 0.000003 9.692755
v -8.702995 0.000001 -8.967945
v 2.574065 0.000000 -18.211901
v -4.768600 0.000003 15.765497
v 8.702995 0.000001 -8.967945
v 4.768601 0.000003 15.765497
v 1.880265 -0.000022 18.327215
v -1.880210 -0.000022 18.327215
v 1.818243 -1.818243 -18.380217
v -1.818243 1.818244 -18.380217
v 3.991478 3.893153 -15.411872
v -3.991478 -3.893152 -15.411870
v 6.633947 -6.470525 0.208899
v -6.633947 6.470530 0.208897
v 6.122764 5.971939 -8.967946
v -6.122764 -5.971936 -8.967944
v 0.000000 8.449083 0.208897
v 0.000000 -8.449080 0.208900
v -9.429598 0.000002 0.208899
v 9.429598 0.000002 0.208899
v 8.755356 3.609153 -4.541705
v -8.755356 -3.609149 -4.541704
v 3.609151 -8.095141 -4.541703
v -3.609151 8.095143 -4.541706
v 3.609151 8.095143 -4.541706
v -3.609151 -8.095141 -4.541703
v -8.755356 3.609153 -4.541705
v 8.755356 -3.609149 -4.541704
v 0.000000 -2.415524 -18.106337
v 0.000000 5.083599 -15.411872
v -2.574065 0.000000 -18.211901
v 5.673551 0.000000 -15.411871
v 3.991478 -3.893153 -15.411870
v -3.991478 3.893153 -15.411872
v 1.818243 1.818244 -18.380217
v -1.818243 -1.818243 -18.380217
v 0.000066 -0.000061 19.047087
v -4.549608 4.437538 13.192285
v -4.549608 -4.437532 13.192286
v 4.549610 4.437538 13.192285
v 4.549610 -4.437532 13.192286
v -5.189547 5.061709 -12.792048
v -5.189546 -5.061707 -12.792047
v 5.189546 5.061709 -12.792048
v 5.189546 -5.061707 -12.792047
v 6.194374 -6.041780 5.212558
v 6.194374 6.041785 5.212556
v -6.194373 6.041785 5.212556
v -6.194373 -6.041780 5.212558
v 0.000001 5.794446 13.192285
v 0.000001 -5.794439 13.192286
v 0.000000 6.609475 -12.792048
v 0.000000 -6.609473 -12.792047
v 0.000000 7.889239 5.212556
v 0.000000 -7.889233 5.212556
v -6.466886 0.000003 13.192286
v 6.466887 0.000003 13.192286
v -7.376503 0.000001 -12.792048
v 7.376503 0.000001 -12.792048
v -8.804781 0.000003 5.212557
v 8.804782 0.000003 5.212557
v 0.000000 0.000000 -19.446478
v 6.700278 -6.535223 -4.541703
v -6.700278 6.535227 -4.541706
v 6.700278 6.535227 -4.541706
v -6.700278 -6.535223 -4.541703
v 0.000000 8.533563 -4.541706
v 0.000000 -8.533561 -4.541703
v -9.523883 0.000002 -4.541704
v 9.523883 0.000002 -4.541704
v -1.423780 -3.193465 -17.289579
v -1.555632 -3.489202 -16.976397
v -1.485133 -3.331078 -16.982502
v 3.773814 1.555650 -16.976351
v 3.453657 1.423674 -17.289808
v 3.602688 1.485108 -16.982559
v -1.555631 3.489202 -16.976398
v -1.423779 3.193465 -17.289579
v -1.485133 3.331078 -16.982502
v 1.423779 -3.193464 -17.289579
v 1.555632 -3.489202 -16.976398
v 1.485133 -3.331077 -16.982502
v 1.423779 3.193465 -17.289579
v 1.555631 3.489202 -16.976398
v 1.485133 3.331078 -16.982502
v -3.453658 1.423674 -17.289808
v -3.773815 1.555650 -16.976351
v -3.602689 1.485108 -16.982559
v -3.453658 -1.423674 -17.289804
v -3.773814 -1.555650 -16.976351
v -3.602688 -1.485108 -16.982553
v 3.773814 -1.555649 -16.976351
v 3.453658 -1.423674 -17.289804
v 3.602688 -1.485108 -16.982553
v 0.000000 -3.292846 -17.337946
v 0.000000 -3.602710 -17.034323
v -0.000000 -3.437382 -17.035774
v 0.000000 3.602710 -17.034325
v 0.000000 3.292845 -17.337946
v -0.000000 3.437382 -17.035782
v -3.673627 0.000000 -17.338865
v -4.018406 0.000000 -17.034615
v -3.834242 0.000000 -17.036129
v 4.018405 0.000000 -17.034615
v 3.673626 0.000000 -17.338865
v 3.834243 0.000000 -17.036129
v 2.591821 -2.532729 -17.354536
v 2.827196 -2.756212 -17.034639
v 2.698658 -2.633882 -17.040533
v -2.591820 2.532729 -17.354536
v -2.827197 2.756214 -17.034639
v -2.698659 2.633882 -17.040533
v 2.591820 2.532729 -17.354536
v 2.827197 2.756214 -17.034639
v 2.698658 2.633882 -17.040533
v -2.827197 -2.756213 -17.034639
v -2.591821 -2.532730 -17.354536
v -2.698659 -2.633882 -17.040533
v -2.911529 -1.200199 17.364414
v -2.702869 -1.114189 17.561117
v -2.760173 -1.137809 17.388508
v 1.114329 2.499361 17.560850
v 1.200190 2.691950 17.364452
v 1.137848 2.552119 17.388439
v 2.702885 -1.114189 17.561117
v 2.911540 -1.200199 17.364414
v 2.760186 -1.137809 17.388508
v -1.114313 -2.499368 17.560850
v -1.200178 -2.691952 17.364452
v -1.137835 -2.552123 17.388439
v -1.114313 2.499362 17.560850
v -1.200178 2.691950 17.364452
v -1.137835 2.552119 17.388439
v 1.114329 -2.499368 17.560850
v 1.200190 -2.691952 17.364452
v 1.137848 -2.552123 17.388443
v -2.911529 1.200198 17.364414
v -2.702869 1.114183 17.561117
v -2.760173 1.137806 17.388508
v 2.702885 1.114183 17.561117
v 2.911540 1.200198 17.364414
v 2.760186 1.137806 17.388508
v -2.183396 -2.128595 17.397612
v -2.026094 -1.978105 17.593176
v -2.069235 -2.018084 17.419737
v -2.183396 2.128590 17.397612
v -2.026094 1.978094 17.593176
v -2.069236 2.018076 17.419737
v 2.026113 -1.978104 17.593176
v 2.183410 -2.128595 17.397612
v 2.069251 -2.018083 17.419737
v 2.026114 1.978094 17.593176
v 2.183410 2.128590 17.397612
v 2.069251 2.018076 17.419737
v 0.000007 2.782260 17.397421
v 0.000010 2.581147 17.589399
v 0.000008 2.636577 17.418600
v 0.000007 -2.782264 17.397421
v 0.000010 -2.581157 17.589399
v 0.000008 -2.636584 17.418600
v -2.878516 -0.000005 17.589239
v -3.103339 -0.000002 17.397604
v -2.940710 -0.000003 17.418608
v 3.103353 -0.000002 17.397604
v 2.878535 -0.000005 17.589239
v 2.940726 -0.000003 17.418608
v 0.000000 -6.137518 -14.682584
v 0.000000 -6.585063 -16.492914
v -0.645540 -6.937215 -16.105663
v 0.450471 -6.654237 -16.416847
v -0.804976 -7.159957 -15.860727
v 0.811721 -6.848061 -16.203712
v -0.804976 -7.407183 -15.588868
v 1.012200 -7.128144 -15.895721
v -0.645540 -7.629925 -15.343932
v 1.012200 -7.439012 -15.553878
v -0.358248 -7.784068 -15.174432
v 0.811721 -7.719095 -15.245889
v 0.000000 -7.839080 -15.113937
v 0.450472 -7.912918 -15.032753
v 0.358248 -7.784068 -15.174432
v 0.000000 -7.982093 -14.956686
v 0.645540 -7.629925 -15.343932
v -0.450471 -7.912918 -15.032753
v 0.804975 -7.407183 -15.588869
v -0.811721 -7.719095 -15.245889
v 0.804975 -7.159957 -15.860726
v -1.012200 -7.439012 -15.553878
v 0.645540 -6.937215 -16.105663
v -1.012200 -7.128143 -15.895721
v 0.000000 -6.728060 -16.335659
v -0.811721 -6.848061 -16.203712
v -0.450471 -6.654237 -16.416847
v 0.358248 -6.783072 -16.275166
v 0.000000 -5.860548 -15.228829
v 0.000000 -5.852461 -14.996043
v 0.183833 -5.880691 -14.965001
v 0.256196 -5.899890 -15.185568
v 0.331255 -5.959788 -14.878022
v 0.461650 -6.010123 -15.064351
v 0.413068 -6.074087 -14.752336
v 0.575668 -6.169414 -14.889189
v 0.413068 -6.200949 -14.612833
v 0.575668 -6.346214 -14.694773
v 0.331255 -6.315247 -14.487145
v 0.461650 -6.505505 -14.519609
v 0.183833 -6.394345 -14.400167
v 0.256197 -6.615738 -14.398393
v 0.000000 -6.422575 -14.369124
v 0.000000 -6.655080 -14.355131
v -0.183832 -6.394345 -14.400167
v -0.256196 -6.615738 -14.398393
v -0.331255 -6.315247 -14.487145
v -0.461650 -6.505506 -14.519609
v -0.413068 -6.200949 -14.612833
v -0.575668 -6.346214 -14.694772
v -0.413068 -6.074087 -14.752336
v -0.575668 -6.169414 -14.889189
v -0.331255 -5.959788 -14.878022
v -0.461650 -6.010123 -15.064351
v -0.183832 -5.880691 -14.965001
v -0.256196 -5.899889 -15.185568
v -0.358247 -6.783072 -16.275166
v -0.645540 -7.756688 -16.850880
v -0.811722 -7.667526 -16.948927
v -0.645540 -8.449398 -16.089149
v -0.811722 -8.538561 -15.991105
v -0.000000 -7.404529 -17.238131
v 0.450471 -7.473703 -17.162064
v 0.358248 -8.603540 -15.919650
v 0.450471 -8.732384 -15.777968
v 0.811721 -7.667526 -16.948927
v 0.804975 -7.979431 -16.605944
v 1.012200 -7.947609 -16.640936
v -0.804976 -8.226656 -16.334085
v -1.012200 -8.258478 -16.299093
v 1.012200 -8.258478 -16.299093
v -0.358248 -7.602545 -17.020384
v -0.000000 -7.547533 -17.080877
v -1.012200 -7.947608 -16.640936
v -0.804976 -7.979430 -16.605944
v 0.811721 -8.538561 -15.991105
v -0.000000 -8.658554 -15.859155
v -0.000000 -8.801558 -15.701901
v -0.450471 -8.732384 -15.777968
v -0.358248 -8.603540 -15.919650
v 0.804975 -8.226656 -16.334085
v 0.645540 -8.449398 -16.089149
v 0.358248 -7.602545 -17.020384
v 0.645540 -7.756688 -16.850880
v -0.450471 -7.473702 -17.162064
v -0.000000 -6.815853 -16.702793
v -0.000000 -6.878119 -16.759418
v -0.000000 -6.893206 -16.680281
v 0.811721 -7.078851 -16.413591
v 0.811721 -7.141117 -16.470215
v 0.758011 -7.138802 -16.410213
v 1.012200 -7.421200 -16.162226
v 1.012200 -7.358934 -16.105602
v 0.945224 -7.400352 -16.122604
v -1.012200 -7.669803 -15.763758
v -1.012200 -7.732069 -15.820382
v -0.945224 -7.690650 -15.803380
v -1.012200 -7.421199 -16.162226
v -1.012200 -7.358934 -16.105602
v -0.945224 -7.400352 -16.122604
v 0.000000 -8.212883 -15.166566
v 0.000000 -8.275150 -15.223189
v 0.000000 -8.197796 -15.245703
v -0.450471 -8.143709 -15.242633
v -0.450471 -8.205975 -15.299256
v -0.420664 -8.133200 -15.316737
v -0.450471 -6.885028 -16.626728
v -0.450471 -6.947294 -16.683352
v -0.420664 -6.957804 -16.609247
v 0.450471 -6.947294 -16.683352
v 0.450471 -6.885028 -16.626728
v 0.420664 -6.957804 -16.609247
v 0.450471 -8.205975 -15.299256
v 0.450471 -8.143709 -15.242633
v 0.420664 -8.133200 -15.316737
v 0.811721 -7.949885 -15.455769
v 0.811721 -8.012152 -15.512392
v 0.758011 -7.952200 -15.515769
v -0.811721 -8.012152 -15.512392
v -0.811721 -7.949886 -15.455768
v -0.758011 -7.952201 -15.515769
v -0.811721 -7.141117 -16.470215
v -0.811721 -7.078851 -16.413591
v -0.758011 -7.138802 -16.410215
v 1.012200 -7.732069 -15.820382
v 1.012200 -7.669803 -15.763758
v 0.945224 -7.690650 -15.803380
v 0.155680 -5.823510 -14.840140
v 0.155680 -5.823510 -14.840140
v 0.155680 -6.055648 -14.936296
v 0.155680 -6.055648 -14.936296
v 0.155680 -5.727355 -14.608003
v 0.155680 -5.727355 -14.608003
v 0.155680 -5.823510 -14.375863
v 0.155680 -5.823510 -14.375863
v 0.155680 -6.055648 -14.279708
v 0.155680 -6.055648 -14.279708
v 0.155680 -6.287787 -14.375863
v 0.155680 -6.287787 -14.375863
v 0.155680 -6.383942 -14.608003
v 0.155680 -6.383942 -14.608003
v 0.155680 -6.287787 -14.840140
v 0.155680 -6.287787 -14.840140
v 0.000000 -5.823510 -14.375867
v 0.000000 -6.055648 -14.279710
v 0.000000 -5.823510 -14.840142
v 0.000000 -5.727355 -14.608005
v 0.000000 -6.383942 -14.608005
v 0.000000 -6.287787 -14.840142
v 0.000000 -6.287787 -14.375867
v 0.000000 -6.055648 -14.936299
v -0.155680 -5.823510 -14.840140
v -0.155680 -5.823510 -14.840140
v -0.155680 -6.055648 -14.936296
v -0.155680 -6.055648 -14.936296
v -0.155680 -5.727355 -14.608003
v -0.155680 -5.727355 -14.608003
v -0.155680 -5.823510 -14.375863
v -0.155680 -5.823510 -14.375863
v -0.155680 -6.055648 -14.279708
v -0.155680 -6.055648 -14.279708
v -0.155680 -6.287787 -14.375863
v -0.155680 -6.287787 -14.375863
v -0.155680 -6.383942 -14.608003
v -0.155680 -6.383942 -14.608003
v -0.155680 -6.287787 -14.840140
v -0.155680 -6.287787 -14.840140
v 4.735042 0.131004 11.623766
v 4.735042 0.131004 11.623766
v 4.735042 0.131005 13.973112
v 4.735042 0.131005 13.973112
v 5.861999 0.131005 13.973112
v 5.861999 0.131005 13.973112
v 5.861995 0.131004 11.623766
v 5.861995 0.131005 17.177895
v 5.861995 0.131005 17.177895
v 8.520954 0.131005 17.177895
v 8.520954 0.131005 17.177895
v 8.520954 0.131005 13.973112
v 7.369792 0.131004 11.937681
v 8.249583 0.131004 12.955397
v 7.874170 0.131004 12.371946
v 4.735042 -0.130996 11.623766
v 4.735042 -0.130996 11.623766
v 4.735042 -0.130996 13.973112
v 4.735042 -0.130996 13.973112
v 5.861999 -0.130996 13.973112
v 5.861999 -0.130996 13.973112
v 5.861995 -0.130996 11.623766
v 5.861995 -0.130995 17.177895
v 5.861995 -0.130995 17.177895
v 8.520954 -0.130995 17.177895
v 8.520954 -0.130995 17.177895
v 8.520954 -0.130996 13.973112
v 7.369792 -0.130996 11.937681
v 8.249583 -0.130996 12.955397
v 7.874170 -0.130996 12.371946
v 0.131001 -4.083038 11.623767
v 0.131001 -4.083038 11.623767
v 0.131001 -4.083038 13.973113
v 0.131001 -4.083038 13.973113
v 0.131001 -5.209995 13.973113
v 0.131001 -5.209995 13.973113
v 0.131001 -5.209991 11.623767
v 0.131001 -5.209991 17.177895
v 0.131001 -5.209991 17.177895
v 0.131001 -7.868949 17.177896
v 0.131001 -7.868949 17.177896
v 0.131001 -7.868949 13.973113
v 0.131001 -6.717788 11.937682
v 0.131001 -7.597579 12.955398
v 0.131001 -7.222166 12.371947
v -0.130999 -4.083038 11.623767
v -0.130999 -4.083038 11.623767
v -0.130999 -4.083038 13.973113
v -0.130999 -4.083038 13.973113
v -0.130999 -5.209995 13.973113
v -0.130999 -5.209995 13.973113
v -0.130999 -5.209991 11.623767
v -0.130999 -5.209991 17.177895
v -0.130999 -5.209991 17.177895
v -0.130999 -7.868949 17.177896
v -0.130999 -7.868949 17.177896
v -0.130999 -7.868949 13.973113
v -0.130999 -6.717788 11.937682
v -0.130999 -7.597579 12.955398
v -0.130999 -7.222166 12.371947
v -4.735042 -0.130997 11.623766
v -4.735042 -0.130997 11.623766
v -4.735042 -0.130997 13.973112
v -4.735042 -0.130997 13.973112
v -5.861999 -0.130997 13.973112
v -5.861999 -0.130997 13.973112
v -5.861995 -0.130998 11.623766
v -5.861995 -0.130997 17.177895
v -5.861995 -0.130997 17.177895
v -8.520954 -0.130997 17.177895
v -8.520954 -0.130997 17.177895
v -8.520954 -0.130997 13.973112
v -7.369792 -0.130998 11.937681
v -8.249583 -0.130998 12.955397
v -7.874170 -0.130998 12.371946
v -4.735042 0.131002 11.623766
v -4.735042 0.131002 11.623766
v -4.735042 0.131003 13.973112
v -4.735042 0.131003 13.973112
v -5.861999 0.131003 13.973112
v -5.861999 0.131003 13.973112
v -5.861995 0.131002 11.623766
v -5.861995 0.131004 17.177895
v -5.861995 0.131004 17.177895
v -8.520954 0.131004 17.177895
v -8.520954 0.131004 17.177895
v -8.520954 0.131003 13.973112
v -7.369792 0.131002 11.937681
v -8.249583 0.131003 12.955397
v -7.874170 0.131002 12.371946
v 0.000000 -6.585384 -13.565251
v 1.407211 -6.403513 -13.602738
v 1.407211 -6.403513 -13.602738
v 1.199493 -5.549911 -15.050185
v 1.199493 -5.549911 -15.050185
v 0.000000 -5.583580 -15.112025
v 1.670152 -5.962008 -13.448604
v 1.462433 -5.145347 -14.798608
v -1.407211 -6.403513 -13.602738
v -1.407211 -6.403513 -13.602738
v -1.199493 -5.549911 -15.050185
v -1.199493 -5.549911 -15.050185
v -1.670152 -5.962008 -13.448604
v -1.462433 -5.145347 -14.798608
v -0.131000 4.083046 11.623761
v -0.131000 4.083046 11.623761
v -0.131000 4.083047 13.973107
v -0.131000 4.083047 13.973107
v -0.131000 5.210004 13.973107
v -0.131000 5.210004 13.973107
v -0.131000 5.210000 11.623761
v -0.131000 5.210000 17.177895
v -0.131000 5.210000 17.177895
v -0.131000 7.868958 17.177893
v -0.131000 7.868958 17.177893
v -0.131000 7.868958 13.973107
v -0.131000 6.717795 11.937676
v -0.131000 7.597586 12.955392
v -0.131000 7.222174 12.371942
v 0.131000 4.083046 11.623761
v 0.131000 4.083046 11.623761
v 0.131000 4.083047 13.973107
v 0.131000 4.083047 13.973107
v 0.131000 5.210004 13.973107
v 0.131000 5.210004 13.973107
v 0.131000 5.210000 11.623761
v 0.131000 5.210000 17.177895
v 0.131000 5.210000 17.177895
v 0.131000 7.868958 17.177893
v 0.131000 7.868958 17.177893
v 0.131000 7.868958 13.973107
v 0.131000 6.717795 11.937676
v 0.131000 7.597586 12.955392
v 0.131000 7.222174 12.371942
v -1.485133 -3.331078 -16.982502
v -2.698659 -2.633882 -17.040533
v -1.555632 -3.489202 -16.976397
v -2.827197 -2.756213 -17.034639
v -0.000000 -3.437382 -17.035774
v 0.000000 -3.602710 -17.034323
v 2.827197 2.756214 -17.034639
v 3.773814 1.555650 -16.976351
v 3.602688 1.485108 -16.982559
v 2.698658 2.633882 -17.040533
v 4.018405 0.000000 -17.034615
v 3.834243 0.000000 -17.036129
v -2.827197 2.756214 -17.034639
v -1.555631 3.489202 -16.976398
v -1.485133 3.331078 -16.982502
v -2.698659 2.633882 -17.040533
v 0.000000 3.602710 -17.034325
v -0.000000 3.437382 -17.035782
v 1.485133 -3.331077 -16.982502
v 1.555632 -3.489202 -16.976398
v 2.698658 -2.633882 -17.040533
v 2.827196 -2.756212 -17.034639
v 1.485133 3.331078 -16.982502
v 1.555631 3.489202 -16.976398
v -3.602689 1.485108 -16.982559
v -3.773815 1.555650 -16.976351
v -3.834242 0.000000 -17.036129
v -4.018406 0.000000 -17.034615
v -3.602688 -1.485108 -16.982553
v -3.773814 -1.555650 -16.976351
v 3.773814 -1.555649 -16.976351
v 3.602688 -1.485108 -16.982553
v -3.103339 -0.000002 17.397604
v -2.911529 -1.200199 17.364414
v -2.760173 -1.137809 17.388508
v -2.940710 -0.000003 17.418608
v -2.702869 -1.114189 17.561117
v -2.878516 -0.000005 17.589239
v -2.183396 -2.128595 17.397612
v -2.069235 -2.018084 17.419737
v -2.026094 -1.978105 17.593176
v 0.000010 2.581147 17.589399
v 1.114329 2.499361 17.560850
v 1.137848 2.552119 17.388439
v 0.000008 2.636577 17.418600
v 1.200190 2.691950 17.364452
v 0.000007 2.782260 17.397421
v 2.026114 1.978094 17.593176
v 2.069251 2.018076 17.419737
v 2.183410 2.128590 17.397612
v 2.878535 -0.000005 17.589239
v 2.702885 -1.114189 17.561117
v 2.760186 -1.137809 17.388508
v 2.940726 -0.000003 17.418608
v 2.911540 -1.200199 17.364414
v 3.103353 -0.000002 17.397604
v 2.026113 -1.978104 17.593176
v 2.069251 -2.018083 17.419737
v 2.183410 -2.128595 17.397612
v 0.000010 -2.581157 17.589399
v -1.114313 -2.499368 17.560850
v -1.137835 -2.552123 17.388439
v 0.000008 -2.636584 17.418600
v -1.200178 -2.691952 17.364452
v 0.000007 -2.782264 17.397421
v -2.026094 1.978094 17.593176
v -1.114313 2.499362 17.560850
v -1.137835 2.552119 17.388439
v -2.069236 2.018076 17.419737
v -1.200178 2.691950 17.364452
v -2.183396 2.128590 17.397612
v 1.114329 -2.499368 17.560850
v 1.137848 -2.552123 17.388443
v 1.200190 -2.691952 17.364452
v -2.911529 1.200198 17.364414
v -2.760173 1.137806 17.388508
v -2.702869 1.114183 17.561117
v 2.702885 1.114183 17.561117
v 2.760186 1.137806 17.388508
v 2.911540 1.200198 17.364414
v -0.358247 -6.783072 -16.275166
v 0.000000 -6.728060 -16.335659
v -0.645540 -6.937215 -16.105663
v -0.804976 -7.159957 -15.860727
v -0.804976 -7.407183 -15.588868
v -0.645540 -7.629925 -15.343932
v -0.358248 -7.784068 -15.174432
v 0.000000 -7.839080 -15.113937
v 0.358248 -7.784068 -15.174432
v 0.645540 -7.629925 -15.343932
v 0.804975 -7.407183 -15.588869
v 0.804975 -7.159957 -15.860726
v 0.645540 -6.937215 -16.105663
v 0.358248 -6.783072 -16.275166
v 0.000000 -5.852461 -14.996043
v 0.183833 -5.880691 -14.965001
v 0.331255 -5.959788 -14.878022
v 0.413068 -6.074087 -14.752336
v 0.413068 -6.200949 -14.612833
v 0.331255 -6.315247 -14.487145
v 0.183833 -6.394345 -14.400167
v 0.000000 -6.422575 -14.369124
v -0.183832 -6.394345 -14.400167
v -0.331255 -6.315247 -14.487145
v -0.413068 -6.200949 -14.612833
v -0.413068 -6.074087 -14.752336
v -0.331255 -5.959788 -14.878022
v -0.183832 -5.880691 -14.965001
v -0.000000 -7.404529 -17.238131
v 0.450471 -7.473703 -17.162064
v 0.811721 -7.667526 -16.948927
v 1.012200 -7.947609 -16.640936
v 1.012200 -8.258478 -16.299093
v -0.358248 -7.602545 -17.020384
v -0.000000 -7.547533 -17.080877
v 0.811721 -8.538561 -15.991105
v -0.645540 -7.756688 -16.850880
v -0.804976 -7.979430 -16.605944
v 0.450471 -8.732384 -15.777968
v -0.804976 -8.226656 -16.334085
v -0.000000 -8.801558 -15.701901
v -0.645540 -8.449398 -16.089149
v -0.358248 -8.603540 -15.919650
v -0.450471 -8.732384 -15.777968
v -0.000000 -8.658554 -15.859155
v -0.811722 -8.538561 -15.991105
v 0.358248 -8.603540 -15.919650
v 0.645540 -8.449398 -16.089149
v -1.012200 -8.258478 -16.299093
v 0.804975 -8.226656 -16.334085
v -1.012200 -7.947608 -16.640936
v 0.804975 -7.979431 -16.605944
v 0.645540 -7.756688 -16.850880
v -0.811722 -7.667526 -16.948927
v 0.358248 -7.602545 -17.020384
v -0.450471 -7.473702 -17.162064
v 0.811721 -8.012152 -15.512392
v 1.012200 -7.732069 -15.820382
v 0.945224 -7.690650 -15.803380
v 0.758011 -7.952200 -15.515769
v 1.012200 -7.669803 -15.763758
v 0.811721 -7.949885 -15.455769
v -0.450471 -6.947294 -16.683352
v -0.811721 -7.141117 -16.470215
v -0.758011 -7.138802 -16.410215
v -0.420664 -6.957804 -16.609247
v -0.811721 -7.078851 -16.413591
v -0.450471 -6.885028 -16.626728
v 0.811721 -7.141117 -16.470215
v 0.450471 -6.947294 -16.683352
v 0.420664 -6.957804 -16.609247
v 0.758011 -7.138802 -16.410213
v 0.450471 -6.885028 -16.626728
v 0.811721 -7.078851 -16.413591
v -1.012200 -7.732069 -15.820382
v -0.811721 -8.012152 -15.512392
v -0.758011 -7.952201 -15.515769
v -0.945224 -7.690650 -15.803380
v -0.811721 -7.949886 -15.455768
v -1.012200 -7.669803 -15.763758
v 0.000000 -8.275150 -15.223189
v 0.450471 -8.205975 -15.299256
v 0.420664 -8.133200 -15.316737
v 0.000000 -8.197796 -15.245703
v 0.450471 -8.143709 -15.242633
v 0.000000 -8.212883 -15.166566
v 1.012200 -7.421200 -16.162226
v 0.945224 -7.400352 -16.122604
v 1.012200 -7.358934 -16.105602
v -1.012200 -7.421199 -16.162226
v -0.945224 -7.400352 -16.122604
v -1.012200 -7.358934 -16.105602
v -0.450471 -8.205975 -15.299256
v -0.420664 -8.133200 -15.316737
v -0.450471 -8.143709 -15.242633
v -0.000000 -6.878119 -16.759418
v -0.000000 -6.893206 -16.680281
v -0.000000 -6.815853 -16.702793
v -0.260333 -6.919866 -16.124743
v 0.000000 -6.879889 -16.168701
v -0.469105 -7.031878 -16.001568
v -0.584964 -7.193742 -15.823576
v -0.584964 -7.373397 -15.626019
v -0.469105 -7.535261 -15.448029
v -0.260333 -7.647274 -15.324855
v 0.000000 -7.687251 -15.280894
v 0.260334 -7.647274 -15.324855
v 0.469105 -7.535261 -15.448029
v 0.584964 -7.373397 -15.626020
v 0.584964 -7.193742 -15.823575
v 0.469105 -7.031878 -16.001568
v 0.260334 -6.919866 -16.124743
vn -0.0000 0.3827 0.9239
vn -0.0000 0.9239 -0.3827
vn -0.0000 -0.9239 -0.3827
vn -0.0000 -0.3827 0.9239
vn -0.0000 0.9239 0.3827
vn -0.0000 0.3827 -0.9239
vn -0.0000 -0.3827 -0.9239
vn -0.0000 -0.9239 0.3827
vn 1.0000 -0.0000 -0.0000
vn -1.0000 -0.0000 -0.0000
vn -0.0000 1.0000 -0.0000
vn -0.0000 -1.0000 -0.0000
vn -0.0000 -0.0000 1.0000
vn -0.0000 -0.0000 -1.0000
vn 0.1025 -0.0000 -0.9947
vn 0.9915 -0.0000 -0.1299
vn 0.4422 -0.0000 -0.8969
vn 0.9146 -0.0000 -0.4043
vn 0.7545 -0.0000 -0.6563
vn -0.0000 -0.1025 -0.9947
vn -0.0000 -0.9915 -0.1299
vn -0.0000 -0.4422 -0.8969
vn -0.0000 -0.9146 -0.4043
vn -0.0000 -0.7545 -0.6563
vn -0.1025 -0.0000 -0.9947
vn -0.9915 -0.0000 -0.1299
vn -0.4422 -0.0000 -0.8969
vn -0.9146 -0.0000 -0.4043
vn -0.7545 -0.0000 -0.6563
vn -0.0000 -0.8477 -0.5305
vn 0.0748 -0.8453 -0.5290
vn -0.0000 -0.4394 0.8983
vn 0.1008 -0.4372 0.8937
vn 0.8619 -0.3687 -0.3482
vn 0.0321 0.5084 -0.8605
vn -0.0000 0.5086 -0.8610
vn -0.0748 -0.8453 -0.5290
vn -0.1008 -0.4372 0.8937
vn -0.8619 -0.3687 -0.3482
vn -0.0321 0.5084 -0.8605
vn -0.0000 0.1025 -0.9947
vn -0.0000 0.9915 -0.1299
vn -0.0000 0.4422 -0.8969
vn -0.0000 0.9146 -0.4043
vn -0.0000 0.7545 -0.6563
vn -0.4813 0.1517 0.8633
vn -0.5004 -0.0000 0.8658
vn -0.7147 0.3118 0.6261
vn -0.7787 -0.0000 0.6273
vn -0.7039 -0.0000 0.7103
vn -0.6452 0.2831 0.7096
vn 0.4813 0.1517 0.8633
vn 0.5004 -0.0000 0.8658
vn 0.6001 -0.0000 0.7999
vn 0.5735 0.2218 0.7886
vn 0.4813 -0.1517 0.8633
vn 0.3254 -0.3602 0.8743
vn 0.4153 -0.4708 0.7784
vn 0.5735 -0.2218 0.7886
vn -0.1079 -0.5211 0.8466
vn -0.3254 -0.3602 0.8743
vn -0.4152 -0.4707 0.7784
vn -0.1733 -0.6190 0.7660
vn 0.7147 -0.3118 0.6261
vn 0.5130 -0.5952 0.6185
vn 0.5931 -0.6855 0.4223
vn 0.8283 -0.3609 0.4286
vn 0.9027 -0.0000 0.4303
vn 0.7787 -0.0000 0.6273
vn 0.7147 0.3118 0.6261
vn 0.6452 0.2831 0.7096
vn 0.7039 -0.0000 0.7103
vn 0.5130 0.5952 0.6185
vn 0.4596 0.5432 0.7026
vn -0.0000 -0.5348 0.8450
vn -0.2317 -0.7661 0.5996
vn -0.0000 -0.8080 0.5891
vn -0.0000 -0.7419 0.6705
vn -0.2050 -0.7015 0.6826
vn -0.4596 -0.5432 0.7026
vn -0.5130 -0.5952 0.6185
vn 0.1079 0.5211 0.8466
vn -0.0000 0.5347 0.8450
vn 0.2317 0.7661 0.5996
vn -0.0000 0.8080 0.5891
vn -0.0000 0.7419 0.6706
vn 0.2050 0.7015 0.6826
vn 0.8871 -0.3866 -0.2521
vn 0.9674 -0.0000 -0.2533
vn 0.9967 -0.0000 -0.0806
vn 0.9138 -0.3981 -0.0802
vn 0.6530 -0.7533 -0.0788
vn 0.6340 -0.7324 -0.2481
vn 0.5921 -0.6845 -0.4254
vn 0.8269 -0.3604 -0.4316
vn 0.9012 -0.0000 -0.4334
vn -0.0000 -0.6426 0.7662
vn -0.2317 0.7661 0.5996
vn -0.5130 0.5952 0.6185
vn -0.4596 0.5432 0.7026
vn -0.2050 0.7015 0.6826
vn -0.5931 -0.6855 0.4223
vn -0.2656 -0.8748 0.4052
vn -0.0000 -0.9179 0.3969
vn 0.1733 0.6190 0.7661
vn -0.0000 0.6426 0.7662
vn 0.6452 -0.2831 0.7096
vn 0.5931 0.6855 0.4223
vn 0.2656 0.8748 0.4052
vn -0.0000 0.9179 0.3969
vn -0.5735 0.2218 0.7886
vn -0.6001 -0.0000 0.7999
vn -0.5931 0.6855 0.4223
vn -0.8283 0.3609 0.4286
vn -0.9027 -0.0000 0.4303
vn 0.5210 -0.1669 -0.8371
vn 0.7359 -0.3045 -0.6047
vn 0.5241 -0.6069 -0.5975
vn 0.3537 -0.4235 -0.8340
vn 0.7168 -0.3127 -0.6232
vn 0.7810 -0.0000 -0.6246
vn 0.5145 -0.5968 -0.6157
vn 0.5505 -0.0000 -0.8349
vn 0.7786 -0.0000 -0.6275
vn -0.8871 0.3866 -0.2521
vn -0.9674 -0.0000 -0.2533
vn -0.9967 -0.0000 -0.0806
vn -0.9138 0.3981 -0.0802
vn -0.6530 0.7533 -0.0788
vn -0.6340 0.7324 -0.2481
vn -0.5921 0.6845 -0.4254
vn -0.8269 0.3604 -0.4316
vn -0.9012 -0.0000 -0.4334
vn -0.2823 -0.9299 -0.2358
vn -0.0000 -0.9733 -0.2297
vn -0.0000 -0.9973 -0.0729
vn -0.2903 -0.9540 -0.0748
vn -0.6530 -0.7533 -0.0788
vn -0.6340 -0.7324 -0.2481
vn -0.5921 -0.6845 -0.4254
vn -0.2651 -0.8736 -0.4080
vn -0.0000 -0.9168 -0.3995
vn 0.2823 0.9299 -0.2358
vn -0.0000 0.9733 -0.2297
vn -0.0000 0.9973 -0.0729
vn 0.2903 0.9540 -0.0748
vn 0.6530 0.7533 -0.0788
vn 0.6340 0.7324 -0.2481
vn 0.5921 0.6845 -0.4254
vn 0.2651 0.8736 -0.4080
vn -0.0000 0.9168 -0.3995
vn 0.2797 0.9232 0.2637
vn -0.0000 0.9665 0.2566
vn 0.6283 0.7267 0.2779
vn 0.6434 0.7432 0.1836
vn 0.2861 0.9422 0.1741
vn -0.0000 0.9855 0.1694
vn -0.2797 -0.9232 0.2637
vn -0.0000 -0.9665 0.2566
vn -0.6283 -0.7267 0.2779
vn -0.6434 -0.7432 0.1836
vn -0.2861 -0.9422 0.1741
vn -0.0000 -0.9855 0.1694
vn -0.8795 0.3833 0.2820
vn -0.9590 -0.0000 0.2835
vn -0.6283 0.7267 0.2779
vn -0.6434 0.7432 0.1836
vn -0.9007 0.3924 0.1865
vn -0.9823 -0.0000 0.1875
vn 0.8795 -0.3833 0.2820
vn 0.9590 -0.0000 0.2835
vn 0.6283 -0.7267 0.2779
vn 0.6434 -0.7432 0.1836
vn 0.9007 -0.3924 0.1865
vn 0.9823 -0.0000 0.1875
vn 0.2797 -0.9232 0.2637
vn 0.2656 -0.8748 0.4052
vn 0.2861 -0.9422 0.1741
vn -0.2797 0.9232 0.2637
vn -0.2656 0.8748 0.4052
vn -0.2861 0.9422 0.1741
vn -0.2823 0.9299 -0.2358
vn -0.2903 0.9540 -0.0748
vn -0.2651 0.8736 -0.4080
vn 0.2823 -0.9299 -0.2358
vn 0.2903 -0.9540 -0.0748
vn 0.2651 -0.8736 -0.4080
vn -0.7168 -0.3127 -0.6232
vn -0.6453 -0.2831 -0.7096
vn -0.4594 -0.5430 -0.7029
vn -0.5145 -0.5968 -0.6157
vn -0.5210 -0.1669 -0.8371
vn -0.3537 -0.4235 -0.8340
vn -0.7810 -0.0000 -0.6246
vn -0.7036 -0.0000 -0.7106
vn -0.1079 0.5211 0.8466
vn -0.1733 0.6190 0.7661
vn 0.2317 -0.7661 0.5996
vn 0.4596 -0.5432 0.7026
vn 0.2050 -0.7015 0.6826
vn 0.1079 -0.5211 0.8466
vn 0.1733 -0.6190 0.7660
vn -0.3254 0.3602 0.8743
vn -0.4152 0.4707 0.7784
vn -0.7168 0.3127 -0.6232
vn -0.6453 0.2831 -0.7096
vn -0.5210 0.1669 -0.8371
vn -0.5505 -0.0000 -0.8349
vn -0.5145 0.5968 -0.6157
vn -0.4594 0.5430 -0.7029
vn 0.8795 0.3833 0.2820
vn 0.8283 0.3609 0.4286
vn 0.9007 0.3924 0.1865
vn -0.8795 -0.3833 0.2820
vn -0.8283 -0.3609 0.4286
vn -0.9007 -0.3924 0.1865
vn -0.8871 -0.3866 -0.2521
vn -0.9138 -0.3981 -0.0802
vn -0.8269 -0.3604 -0.4316
vn 0.2323 0.7681 -0.5967
vn 0.5145 0.5968 -0.6157
vn 0.4594 0.5430 -0.7029
vn 0.2051 0.7015 -0.6825
vn -0.0000 0.7416 -0.6708
vn -0.0000 0.8100 -0.5865
vn 0.0939 0.5684 -0.8174
vn -0.0000 0.5998 -0.8001
vn -0.4813 -0.1517 0.8633
vn -0.5735 -0.2218 0.7886
vn -0.7147 -0.3118 0.6261
vn 0.8871 0.3866 -0.2521
vn 0.9138 0.3981 -0.0802
vn 0.8269 0.3604 -0.4316
vn 0.4152 0.4707 0.7784
vn 0.3254 0.3602 0.8743
vn -0.6452 -0.2831 0.7096
vn 0.9144 0.3984 0.0711
vn 0.6529 0.7542 0.0700
vn 0.9974 -0.0000 0.0715
vn 0.2323 -0.7681 -0.5967
vn -0.0000 -0.8100 -0.5865
vn -0.0000 -0.7416 -0.6708
vn 0.2051 -0.7015 -0.6825
vn 0.4594 -0.5430 -0.7029
vn 0.0939 -0.5684 -0.8174
vn -0.0939 0.5684 -0.8174
vn -0.2193 0.7862 -0.5777
vn -0.0000 0.8034 -0.5955
vn -0.2323 0.7681 -0.5967
vn -0.3537 0.4235 -0.8340
vn -0.5241 0.6069 -0.5975
vn 0.5210 0.1669 -0.8371
vn 0.7359 0.3045 -0.6047
vn 0.7168 0.3127 -0.6232
vn 0.3537 0.4235 -0.8340
vn 0.5241 0.6069 -0.5975
vn -0.2323 -0.7681 -0.5967
vn -0.2051 -0.7015 -0.6825
vn -0.0939 -0.5684 -0.8174
vn -0.0000 -0.5998 -0.8001
vn -0.9144 -0.3984 0.0711
vn -0.6529 -0.7542 0.0700
vn -0.9974 -0.0000 0.0715
vn 0.2899 -0.9548 0.0662
vn 0.6529 -0.7542 0.0700
vn -0.0000 -0.9979 0.0643
vn -0.2899 0.9548 0.0662
vn -0.6529 0.7542 0.0700
vn -0.0000 0.9979 0.0643
vn 0.2899 0.9548 0.0662
vn -0.2899 -0.9548 0.0662
vn -0.9144 0.3984 0.0711
vn 0.9144 -0.3984 0.0711
vn -0.2193 -0.7862 -0.5777
vn -0.5241 -0.6069 -0.5975
vn 0.7036 -0.0000 -0.7106
vn 0.6453 0.2831 -0.7096
vn -0.2051 0.7015 -0.6825
vn 0.2193 -0.7862 -0.5777
vn -0.0000 -0.8034 -0.5955
vn 0.2193 0.7862 -0.5777
vn -0.7786 -0.0000 -0.6275
vn -0.7359 0.3045 -0.6047
vn -0.7359 -0.3045 -0.6047
vn 0.6453 -0.2831 -0.7096
vn -0.2662 -0.8619 -0.4317
vn -0.5909 -0.6770 -0.4388
vn -0.0143 -0.0229 -0.9996
vn -0.0128 -0.0332 -0.9994
vn -0.0086 -0.0363 -0.9993
vn -0.0183 -0.0188 -0.9997
vn -0.0000 -0.9044 -0.4268
vn -0.0000 -0.0152 -0.9999
vn 0.0183 0.0188 -0.9997
vn 0.0307 0.0140 -0.9994
vn 0.0311 0.0133 -0.9994
vn 0.0143 0.0229 -0.9996
vn 0.5909 0.6770 -0.4388
vn 0.8160 0.3519 -0.4587
vn 0.0140 -0.0000 -0.9999
vn 0.8854 -0.0000 -0.4649
vn -0.0183 0.0188 -0.9997
vn -0.0086 0.0363 -0.9993
vn -0.0128 0.0332 -0.9994
vn -0.0143 0.0229 -0.9996
vn -0.5909 0.6770 -0.4388
vn -0.2662 0.8619 -0.4317
vn -0.0000 0.0152 -0.9999
vn -0.0000 0.9044 -0.4268
vn 0.2662 -0.8619 -0.4317
vn 0.0128 -0.0332 -0.9994
vn 0.0086 -0.0363 -0.9993
vn 0.5909 -0.6770 -0.4388
vn 0.0143 -0.0229 -0.9996
vn 0.0183 -0.0188 -0.9997
vn 0.2662 0.8619 -0.4317
vn 0.0128 0.0332 -0.9994
vn 0.0086 0.0363 -0.9993
vn -0.8160 0.3519 -0.4587
vn -0.0311 0.0133 -0.9994
vn -0.0307 0.0140 -0.9994
vn -0.8854 -0.0000 -0.4649
vn -0.0140 -0.0000 -0.9999
vn -0.8160 -0.3519 -0.4587
vn -0.0311 -0.0133 -0.9994
vn -0.0307 -0.0140 -0.9994
vn 0.0307 -0.0140 -0.9994
vn 0.0311 -0.0133 -0.9994
vn 0.8160 -0.3519 -0.4587
vn -0.1328 -0.0000 0.9911
vn -0.1310 -0.0569 0.9898
vn -0.1309 -0.0571 0.9897
vn -0.9410 -0.0000 0.3384
vn -0.8632 -0.3750 0.3380
vn -0.8623 -0.3772 0.3380
vn -0.0925 -0.1038 0.9903
vn -0.0881 -0.1084 0.9902
vn -0.6217 -0.7132 0.3238
vn -0.6154 -0.7188 0.3236
vn -0.0000 0.9522 0.3055
vn 0.2725 0.9093 0.3146
vn 0.2816 0.9064 0.3148
vn -0.0000 0.1482 0.9890
vn 0.0437 0.1473 0.9881
vn 0.0447 0.1471 0.9881
vn 0.6154 0.7188 0.3236
vn 0.6217 0.7132 0.3238
vn 0.0881 0.1084 0.9902
vn 0.0925 0.1038 0.9903
vn 0.9410 -0.0000 0.3384
vn 0.8623 -0.3772 0.3379
vn 0.8632 -0.3750 0.3380
vn 0.1328 -0.0000 0.9911
vn 0.1309 -0.0571 0.9897
vn 0.1310 -0.0569 0.9898
vn 0.6154 -0.7188 0.3236
vn 0.6217 -0.7132 0.3238
vn 0.0881 -0.1084 0.9902
vn 0.0925 -0.1038 0.9903
vn -0.0000 -0.9522 0.3055
vn -0.2725 -0.9093 0.3146
vn -0.2816 -0.9064 0.3147
vn -0.0000 -0.1482 0.9890
vn -0.0437 -0.1473 0.9881
vn -0.0447 -0.1471 0.9881
vn -0.6154 0.7188 0.3236
vn -0.2725 0.9093 0.3146
vn -0.2816 0.9064 0.3148
vn -0.6217 0.7132 0.3238
vn -0.0881 0.1084 0.9902
vn -0.0437 0.1473 0.9881
vn -0.0447 0.1471 0.9881
vn -0.0925 0.1038 0.9903
vn 0.2725 -0.9093 0.3146
vn 0.2816 -0.9064 0.3147
vn 0.0437 -0.1473 0.9881
vn 0.0448 -0.1471 0.9881
vn -0.1310 0.0569 0.9898
vn -0.1309 0.0571 0.9897
vn -0.8632 0.3750 0.3380
vn -0.8623 0.3772 0.3380
vn 0.8623 0.3772 0.3379
vn 0.8632 0.3750 0.3380
vn 0.1309 0.0571 0.9897
vn 0.1310 0.0569 0.9898
vn -0.7818 0.4195 -0.4613
vn -0.4339 0.6062 -0.6666
vn -0.0000 0.7776 -0.6288
vn -0.0000 0.9568 -0.2906
vn 0.3726 0.8996 -0.2277
vn 0.4288 0.7118 -0.5563
vn -0.4288 0.7118 -0.5563
vn -0.3726 0.8996 -0.2277
vn -0.9749 -0.1497 0.1646
vn -0.7818 -0.4195 0.4613
vn 0.6714 0.7393 -0.0514
vn 0.7727 0.5272 -0.3534
vn -0.0000 0.7398 0.6728
vn 0.9749 -0.1497 0.1646
vn 0.9749 0.1497 -0.1646
vn 0.8372 0.5077 0.2034
vn 0.9636 0.2606 -0.0603
vn -0.9749 0.1497 -0.1646
vn 0.8372 0.2505 0.4861
vn 0.9636 -0.0353 0.2652
vn 0.7727 -0.3019 0.5583
vn 0.4288 -0.4864 0.7612
vn 0.4339 -0.6062 0.6666
vn 0.7818 -0.4195 0.4613
vn 0.6714 0.0189 0.7409
vn 0.7818 0.4195 -0.4613
vn 0.3726 -0.1415 0.9171
vn 0.4339 0.6062 -0.6666
vn -0.0000 0.6728 -0.7398
vn -0.0000 -0.1987 0.9801
vn -0.0000 -0.5523 0.8336
vn -0.3726 -0.1415 0.9171
vn -0.4288 -0.4864 0.7612
vn -0.9636 0.2606 -0.0603
vn -0.7727 0.5272 -0.3534
vn -0.6714 0.0189 0.7409
vn -0.7727 -0.3019 0.5583
vn -0.8372 0.2505 0.4861
vn -0.9636 -0.0353 0.2652
vn -0.8372 0.5077 0.2034
vn -0.6714 0.7393 -0.0514
vn -0.4339 -0.6062 0.6666
vn -0.0000 -0.6728 0.7398
vn -0.0000 0.9994 -0.0347
vn 0.3029 0.9529 0.0164
vn 0.5458 0.8226 0.1597
vn 0.6806 0.6342 0.3668
vn 0.6806 0.4252 0.5967
vn 0.5458 0.2369 0.8037
vn 0.3029 0.1066 0.9470
vn -0.0000 0.0601 0.9982
vn -0.3029 0.1066 0.9470
vn -0.5458 0.2369 0.8037
vn -0.6806 0.4252 0.5967
vn -0.6806 0.6342 0.3668
vn -0.5458 0.8226 0.1597
vn -0.3029 0.9529 0.0164
vn -0.0000 -0.7398 -0.6728
vn 0.4084 0.4118 0.8147
vn 0.5092 0.5527 0.6597
vn 0.4084 -0.8500 -0.3328
vn 0.5092 -0.7091 -0.4877
vn -0.2266 0.9475 0.2255
vn -0.4084 0.8500 0.3328
vn -0.2266 -0.3143 -0.9219
vn -0.4084 -0.4118 -0.8147
vn 0.4084 0.8500 0.3328
vn 0.2266 0.9475 0.2255
vn 0.4084 -0.4118 -0.8147
vn 0.2266 -0.3143 -0.9219
vn -0.5092 0.5527 0.6597
vn -0.4084 0.4118 0.8147
vn -0.5092 -0.7091 -0.4877
vn -0.4084 -0.8500 -0.3328
vn -0.0000 0.2795 0.9602
vn 0.2266 0.3143 0.9219
vn -0.0000 -0.9823 -0.1873
vn 0.2266 -0.9475 -0.2255
vn 0.5092 0.7091 0.4877
vn 0.5092 -0.5527 -0.6597
vn -0.5092 0.7091 0.4877
vn -0.5092 -0.5527 -0.6597
vn -0.2266 0.3143 0.9219
vn -0.2266 -0.9475 -0.2255
vn -0.0000 0.9823 0.1873
vn -0.0000 -0.2794 -0.9602
vt -0.000000 1.000000
vt 0.000000 -0.000000
vt 1.000000 0.000000
vt 1.000000 1.000000
vt 0.029426 -0.546485
vt 0.970574 -0.546485
vt 0.500000 1.000000
vt 0.141870 0.748531
vt 0.141870 0.796921
vt 0.050477 0.796921
vt 0.050477 0.748531
vt 0.062688 0.861663
vt 0.141870 0.911093
vt 0.266542 0.796921
vt 0.266541 0.911093
vt 0.079582 0.883321
vt 0.102279 0.899440
vt 0.141870 0.732906
vt 0.050477 0.732906
vt 0.157495 0.796921
vt 0.157495 0.748531
vt 0.035606 0.747389
vt 0.035392 0.792254
vt 0.282167 0.911093
vt 0.282167 0.796921
vt 0.141870 0.926718
vt 0.266541 0.926718
vt 0.047732 0.863844
vt 0.096487 0.917222
vt 0.140630 0.927843
vt 0.069982 0.901987
vt 0.266542 0.781296
vt 0.141870 0.781296
vt -0.000000 0.487683
vt 0.000000 -0.000000
vt 1.000000 0.000000
vt 1.000000 0.487683
vt 1.000000 0.347058
vt 0.742772 0.876854
vt 0.734307 0.839927
vt 0.832350 0.839925
vt 0.855425 0.458744
vt 0.855425 0.497064
vt 0.906036 0.497064
vt 0.906036 0.458744
vt 0.921925 0.876854
vt 0.930390 0.839927
vt 0.982442 0.839928
vt 0.973283 0.898025
vt 0.921925 0.803003
vt 0.901921 0.775493
vt 0.937995 0.736785
vt 0.973283 0.781831
vt 0.795423 0.757106
vt 0.762776 0.775493
vt 0.726700 0.736785
vt 0.774243 0.709604
vt 0.855425 0.152177
vt 0.855425 0.113857
vt 0.787004 0.113857
vt 0.787004 0.152177
vt 0.855425 0.152178
vt 0.787004 0.152178
vt 0.787004 0.190498
vt 0.855425 0.190498
vt 0.855425 0.228818
vt 0.906036 0.228818
vt 0.906036 0.190499
vt 0.855425 0.190499
vt 0.855425 0.228820
vt 0.855425 0.267139
vt 0.906036 0.267139
vt 0.906036 0.228820
vt 0.832348 0.751709
vt 0.855425 0.612027
vt 0.855425 0.650347
vt 0.906036 0.650347
vt 0.906036 0.612027
vt 0.855425 0.612027
vt 0.906036 0.612027
vt 0.906036 0.573707
vt 0.855425 0.573707
vt 0.869273 0.922749
vt 0.832348 0.928146
vt 0.855425 0.305461
vt 0.855425 0.343781
vt 0.906036 0.343781
vt 0.906036 0.305461
vt 0.855425 0.305460
vt 0.906036 0.305460
vt 0.906036 0.267140
vt 0.855425 0.267140
vt 0.280417 0.152176
vt 0.280417 0.190497
vt 0.381279 0.190498
vt 0.381279 0.152178
vt 0.280417 0.152177
vt 0.381279 0.152177
vt 0.381279 0.113857
vt 0.280417 0.113857
vt 0.189964 0.113857
vt 0.189964 0.152177
vt 0.189964 0.152178
vt 0.189964 0.190498
vt 0.832347 0.705340
vt 0.855425 0.382103
vt 0.855425 0.420422
vt 0.906036 0.420422
vt 0.906036 0.382103
vt 0.787004 0.573707
vt 0.787004 0.612027
vt 0.787004 0.612027
vt 0.787004 0.650347
vt 0.890451 0.970253
vt 0.832347 0.974518
vt 0.906036 0.190498
vt 0.906036 0.152178
vt 0.787004 0.267140
vt 0.787004 0.305460
vt 0.787004 0.305461
vt 0.787004 0.343781
vt 0.855425 0.458743
vt 0.906036 0.458743
vt 0.906036 0.420424
vt 0.855425 0.420424
vt 0.691411 0.898025
vt 0.682252 0.839928
vt 0.787004 0.420424
vt 0.787004 0.458743
vt 0.787004 0.458744
vt 0.787004 0.497064
vt 0.562874 0.801046
vt 0.606934 0.782883
vt 0.573495 0.739851
vt 0.543479 0.767574
vt 0.120606 0.152178
vt 0.120606 0.190498
vt 0.120606 0.152177
vt 0.120606 0.113857
vt 0.572806 0.838122
vt 0.615469 0.838122
vt 0.280417 0.458744
vt 0.280417 0.497064
vt 0.381279 0.497064
vt 0.381279 0.458744
vt 0.280417 0.458743
vt 0.381279 0.458743
vt 0.381279 0.420424
vt 0.280417 0.420424
vt 0.189964 0.420424
vt 0.189964 0.458743
vt 0.189964 0.458744
vt 0.189964 0.497064
vt 0.280417 0.612027
vt 0.280417 0.650347
vt 0.381279 0.650347
vt 0.381279 0.612027
vt 0.280417 0.612027
vt 0.381279 0.612027
vt 0.381279 0.573707
vt 0.280417 0.573707
vt 0.189964 0.573707
vt 0.189964 0.612027
vt 0.189964 0.612027
vt 0.189964 0.650347
vt 0.280417 0.305461
vt 0.280417 0.343781
vt 0.381279 0.343781
vt 0.381279 0.305461
vt 0.280417 0.305460
vt 0.381279 0.305460
vt 0.381279 0.267140
vt 0.280417 0.267140
vt 0.189964 0.267140
vt 0.189964 0.305460
vt 0.189964 0.305461
vt 0.189964 0.343781
vt 0.704567 0.305461
vt 0.704567 0.343781
vt 0.704567 0.305460
vt 0.704567 0.267140
vt 0.600909 0.267140
vt 0.600909 0.305460
vt 0.600909 0.305461
vt 0.600909 0.343781
vt 0.704567 0.612027
vt 0.704567 0.650347
vt 0.704567 0.612027
vt 0.704567 0.573707
vt 0.600909 0.573707
vt 0.600909 0.612027
vt 0.600909 0.612027
vt 0.600909 0.650347
vt 0.704567 0.458744
vt 0.704567 0.497064
vt 0.704567 0.458743
vt 0.704567 0.420424
vt 0.600909 0.420424
vt 0.600909 0.458743
vt 0.600909 0.458744
vt 0.600909 0.497064
vt 0.704567 0.152178
vt 0.704567 0.190498
vt 0.704567 0.152177
vt 0.704567 0.113857
vt 0.600909 0.113857
vt 0.600909 0.152177
vt 0.600909 0.152178
vt 0.600909 0.190498
vt 0.704567 0.075536
vt 0.704567 0.113855
vt 0.787004 0.113855
vt 0.787004 0.075536
vt 0.704567 0.075534
vt 0.787004 0.075534
vt 0.787004 0.037215
vt 0.704567 0.037215
vt 0.600909 0.037215
vt 0.600909 0.075534
vt 0.600909 0.075536
vt 0.600909 0.113855
vt 0.704567 0.382103
vt 0.704567 0.420422
vt 0.787004 0.420422
vt 0.787004 0.382103
vt 0.704567 0.382102
vt 0.787004 0.382102
vt 0.787004 0.343782
vt 0.704567 0.343782
vt 0.600909 0.343782
vt 0.600909 0.382102
vt 0.600909 0.382103
vt 0.600909 0.420422
vt 0.280417 0.382103
vt 0.280417 0.420422
vt 0.381279 0.420422
vt 0.381279 0.382103
vt 0.280417 0.382102
vt 0.381279 0.382102
vt 0.381279 0.343782
vt 0.280417 0.343782
vt 0.189964 0.343782
vt 0.189964 0.382102
vt 0.189964 0.382103
vt 0.189964 0.420422
vt 0.280417 0.075536
vt 0.280417 0.113855
vt 0.381279 0.113855
vt 0.381279 0.075536
vt 0.280417 0.075534
vt 0.381279 0.075534
vt 0.381279 0.037215
vt 0.280417 0.037215
vt 0.189964 0.037215
vt 0.189964 0.075534
vt 0.189964 0.075536
vt 0.189964 0.113855
vt 0.120606 0.535386
vt 0.070672 0.535386
vt 0.070672 0.573705
vt 0.120606 0.573705
vt 0.382988 0.801046
vt 0.472931 0.838122
vt 0.402382 0.767574
vt 0.120606 0.535385
vt 0.120606 0.497065
vt 0.070672 0.497065
vt 0.070672 0.535385
vt 0.795423 0.922749
vt 0.774243 0.970253
vt 0.855425 0.075536
vt 0.855425 0.113855
vt 0.906036 0.113855
vt 0.906036 0.075536
vt 0.855425 0.382102
vt 0.855425 0.343782
vt 0.869273 0.757106
vt 0.890451 0.709604
vt 0.762776 0.904362
vt 0.726700 0.943072
vt 0.855425 0.075534
vt 0.855425 0.037215
vt 0.906036 0.382102
vt 0.906036 0.343782
vt 0.906036 0.075534
vt 0.906036 0.037215
vt 0.120606 0.458744
vt 0.070672 0.458744
vt 0.070672 0.497064
vt 0.120606 0.497064
vt 0.382988 0.875199
vt 0.373056 0.838122
vt 0.120606 0.458743
vt 0.120606 0.420424
vt 0.070672 0.420424
vt 0.070672 0.458743
vt 0.704567 0.228820
vt 0.704567 0.267139
vt 0.787004 0.267139
vt 0.787004 0.228820
vt 0.704567 0.228818
vt 0.787004 0.228818
vt 0.787004 0.190499
vt 0.704567 0.190499
vt 0.600909 0.190499
vt 0.600909 0.228818
vt 0.600909 0.228820
vt 0.600909 0.267139
vt 0.704567 0.535386
vt 0.704567 0.573705
vt 0.787004 0.573705
vt 0.787004 0.535386
vt 0.704567 0.535385
vt 0.787004 0.535385
vt 0.787004 0.497065
vt 0.704567 0.497065
vt 0.600909 0.497065
vt 0.600909 0.535385
vt 0.600909 0.535386
vt 0.600909 0.573705
vt 0.280417 0.535386
vt 0.280417 0.573705
vt 0.381279 0.573705
vt 0.381279 0.535386
vt 0.280417 0.535385
vt 0.381279 0.535385
vt 0.381279 0.497065
vt 0.280417 0.497065
vt 0.189964 0.497065
vt 0.189964 0.535385
vt 0.189964 0.535386
vt 0.189964 0.573705
vt 0.120606 0.305460
vt 0.120606 0.267140
vt 0.070672 0.267140
vt 0.070672 0.305460
vt 0.120606 0.305461
vt 0.070672 0.305461
vt 0.070672 0.343781
vt 0.120606 0.343781
vt 0.510007 0.921283
vt 0.472931 0.931846
vt 0.742772 0.803003
vt 0.691411 0.781831
vt 0.855425 0.535385
vt 0.855425 0.497065
vt 0.855425 0.535386
vt 0.855425 0.573705
vt 0.280417 0.228820
vt 0.280417 0.267139
vt 0.381279 0.267139
vt 0.381279 0.228820
vt 0.280417 0.228818
vt 0.381279 0.228818
vt 0.381279 0.190499
vt 0.280417 0.190499
vt 0.189964 0.190499
vt 0.189964 0.228818
vt 0.189964 0.228820
vt 0.189964 0.267139
vt 0.937995 0.943072
vt 0.901921 0.904362
vt 0.906036 0.152177
vt 0.906036 0.113857
vt 0.906036 0.535385
vt 0.906036 0.497065
vt 0.487860 0.228820
vt 0.487860 0.267139
vt 0.487860 0.228818
vt 0.487860 0.190499
vt 0.120606 0.075534
vt 0.120606 0.037215
vt 0.070672 0.037215
vt 0.070672 0.075534
vt 0.120606 0.075536
vt 0.070672 0.075536
vt 0.070672 0.113855
vt 0.120606 0.113855
vt 0.510007 0.754961
vt 0.435854 0.921283
vt 0.417688 0.962030
vt 0.472931 0.965886
vt 0.120606 0.382103
vt 0.120606 0.420422
vt 0.120606 0.382102
vt 0.120606 0.343782
vt 0.402382 0.908671
vt 0.372367 0.936393
vt 0.562874 0.875199
vt 0.606934 0.893362
vt 0.120606 0.228820
vt 0.120606 0.267139
vt 0.120606 0.228818
vt 0.120606 0.190499
vt 0.543479 0.908671
vt 0.573495 0.936393
vt 0.120606 0.612027
vt 0.070672 0.612027
vt 0.070672 0.650347
vt 0.120606 0.650347
vt 0.435854 0.754961
vt 0.472931 0.744399
vt 0.120606 0.612027
vt 0.120606 0.573707
vt 0.070672 0.573707
vt 0.070672 0.612027
vt 0.487860 0.535386
vt 0.487860 0.573705
vt 0.487860 0.535385
vt 0.487860 0.497065
vt 0.487860 0.075536
vt 0.487860 0.113855
vt 0.487860 0.075534
vt 0.487860 0.037215
vt 0.487860 0.382103
vt 0.487860 0.420422
vt 0.487860 0.382102
vt 0.487860 0.343782
vt 0.487860 0.305461
vt 0.487860 0.343781
vt 0.487860 0.305460
vt 0.487860 0.267140
vt 0.487860 0.612027
vt 0.487860 0.650347
vt 0.487860 0.612027
vt 0.487860 0.573707
vt 0.487860 0.458744
vt 0.487860 0.497064
vt 0.487860 0.458743
vt 0.487860 0.420424
vt 0.487860 0.152178
vt 0.487860 0.190498
vt 0.487860 0.152177
vt 0.487860 0.113857
vt 0.417688 0.714215
vt 0.372367 0.739851
vt 0.070672 0.190499
vt 0.070672 0.228818
vt 0.070672 0.228820
vt 0.070672 0.267139
vt 0.070672 0.343782
vt 0.070672 0.382102
vt 0.070672 0.382103
vt 0.070672 0.420422
vt 0.528174 0.714215
vt 0.472931 0.710359
vt 0.528174 0.962030
vt 0.330393 0.838122
vt 0.338927 0.893362
vt 0.338927 0.782883
vt 0.070672 0.113857
vt 0.070672 0.152177
vt 0.070672 0.152178
vt 0.070672 0.190498
vt 0.414292 0.706599
vt 0.366378 0.734127
vt 0.063752 0.573707
vt 0.063752 0.612027
vt 0.472931 0.702402
vt 0.063752 0.612027
vt 0.063752 0.650347
vt 0.063752 0.228820
vt 0.063752 0.267139
vt 0.579484 0.942118
vt 0.615179 0.896760
vt 0.063752 0.190499
vt 0.063752 0.228818
vt 0.624321 0.838122
vt 0.063752 0.382103
vt 0.063752 0.420422
vt 0.366378 0.942118
vt 0.414292 0.969646
vt 0.063752 0.343782
vt 0.063752 0.382102
vt 0.472931 0.973843
vt 0.531569 0.706599
vt 0.063752 0.037215
vt 0.063752 0.075534
vt 0.579484 0.734127
vt 0.063752 0.075536
vt 0.063752 0.113855
vt 0.531569 0.969646
vt 0.063752 0.267140
vt 0.063752 0.305460
vt 0.063752 0.305461
vt 0.063752 0.343781
vt 0.330683 0.896760
vt 0.063752 0.420424
vt 0.063752 0.458743
vt 0.321541 0.838122
vt 0.063752 0.458744
vt 0.063752 0.497064
vt 0.330683 0.779485
vt 0.063752 0.497065
vt 0.063752 0.535385
vt 0.063752 0.535386
vt 0.063752 0.573705
vt 0.063752 0.152178
vt 0.063752 0.190498
vt 0.615179 0.779485
vt 0.063752 0.113857
vt 0.063752 0.152177
vt 0.912208 0.535385
vt 0.912208 0.497065
vt 0.670752 0.839928
vt 0.680673 0.777405
vt 0.906036 0.535386
vt 0.906036 0.573705
vt 0.912208 0.573705
vt 0.912208 0.535386
vt 0.718641 0.729033
vt 0.894873 0.980170
vt 0.832347 0.984811
vt 0.912208 0.343781
vt 0.912208 0.305461
vt 0.946054 0.950824
vt 0.912208 0.305460
vt 0.912208 0.267140
vt 0.984022 0.777405
vt 0.993943 0.839928
vt 0.912208 0.190498
vt 0.912208 0.152178
vt 0.946054 0.729033
vt 0.912208 0.152177
vt 0.912208 0.113857
vt 0.769822 0.699687
vt 0.832347 0.695046
vt 0.912208 0.650347
vt 0.912208 0.612027
vt 0.912208 0.612027
vt 0.912208 0.573707
vt 0.769822 0.980170
vt 0.718641 0.950824
vt 0.912208 0.420422
vt 0.912208 0.382103
vt 0.912208 0.382102
vt 0.912208 0.343782
vt 0.894873 0.699687
vt 0.912208 0.113855
vt 0.912208 0.075536
vt 0.912208 0.075534
vt 0.912208 0.037215
vt 0.912208 0.458743
vt 0.912208 0.420424
vt 0.680673 0.902452
vt 0.912208 0.497064
vt 0.912208 0.458744
vt 0.984022 0.902452
vt 0.912208 0.267139
vt 0.912208 0.228820
vt 0.912208 0.228818
vt 0.912208 0.190499
vt -1.400002 0.460333
vt -1.000001 0.460333
vt -1.000001 0.763889
vt -1.400002 0.763889
vt 1.600633 0.160413
vt 1.600633 1.000000
vt 1.200633 1.000000
vt 1.200633 0.160413
vt 2.000633 0.160413
vt 2.000633 1.000000
vt 0.700000 0.245923
vt 1.100001 0.245923
vt 1.100001 0.754077
vt 0.700000 0.754077
vt 0.800633 1.000000
vt 0.800632 0.160412
vt 0.000000 0.000000
vt 3.100002 0.245923
vt 3.500003 0.245923
vt 3.500003 0.754077
vt 3.100002 0.754077
vt 0.400632 1.000000
vt 0.400632 0.160413
vt 0.300000 0.245923
vt 0.300000 0.754077
vt 0.000632 1.000000
vt 0.000632 0.160413
vt 1.400000 0.159895
vt 1.800000 0.159895
vt 1.800000 0.396499
vt 1.400000 0.396499
vt -0.399368 1.000000
vt -0.399368 0.160413
vt 0.199999 0.159895
vt 0.600000 0.159895
vt 0.600000 0.396499
vt 0.199999 0.396499
vt -0.799368 1.000000
vt -0.799369 0.160413
vt -0.600001 0.159895
vt -0.200001 0.159895
vt -0.200001 0.396499
vt -0.600001 0.396499
vt -1.199368 1.000000
vt -1.199368 0.160412
vt 1.000000 0.159895
vt 1.000000 0.396499
vt 0.600000 0.396499
vt -1.599368 1.000000
vt -1.599368 0.160412
vt -1.800002 0.159895
vt -1.400002 0.159895
vt -1.400002 0.396499
vt -1.800002 0.396499
vt -1.999368 1.000000
vt -1.999368 0.160412
vt 2.700002 0.245923
vt 2.700002 0.754077
vt -2.399369 1.000000
vt -2.399369 0.160413
vt -1.300000 0.245923
vt -0.900001 0.245923
vt -0.900001 0.754077
vt -1.300000 0.754077
vt 2.842293 0.160413
vt 2.842293 1.000000
vt 2.442291 1.000000
vt 2.442291 0.160412
vt 2.300001 0.245923
vt 2.300001 0.754077
vt 2.800633 0.160412
vt 2.800633 1.000000
vt 2.400633 1.000000
vt 2.400633 0.160413
vt 1.500001 0.245923
vt 1.900001 0.245923
vt 1.900001 0.754077
vt 1.500001 0.754077
vt 2.600000 0.159895
vt 3.000000 0.159895
vt 3.000000 0.396499
vt 2.600000 0.396499
vt -1.837651 0.391009
vt -1.481878 0.391009
vt -1.481878 0.559385
vt -1.837651 0.559385
vt 2.075847 0.391009
vt 2.431620 0.391009
vt 2.431620 0.559385
vt 2.075847 0.559385
vt 1.008530 0.391009
vt 1.364302 0.391009
vt 1.364302 0.559385
vt 1.008530 0.559385
vt -0.058788 0.391009
vt 0.296985 0.391009
vt 0.296985 0.559385
vt -0.058788 0.559385
vt -1.126105 0.391009
vt -1.126105 0.559385
vt 2.787393 0.391009
vt 2.787393 0.559385
vt 1.720075 0.391009
vt 1.720075 0.559385
vt 0.652757 0.391009
vt 0.652757 0.559385
vt 3.143166 0.391009
vt 3.143166 0.559385
vt -0.770333 0.391009
vt -0.414560 0.391009
vt -0.414560 0.559385
vt -0.770333 0.559385
vt 2.200000 0.159895
vt 2.600000 0.396499
vt 2.200000 0.396499
vt 3.400001 0.159895
vt 3.800001 0.159895
vt 3.800001 0.396499
vt 3.400001 0.396499
vt -0.500000 0.245923
vt -0.500000 0.754077
vt -0.100000 0.245923
vt -0.100000 0.754077
vt 2.200000 0.396499
vt 3.400001 0.396499
vt 3.000000 0.396499
vt -0.200001 0.396499
vt -2.100001 0.245923
vt -1.700001 0.245923
vt -1.700001 0.754077
vt -2.100001 0.754077
vt -1.000001 0.159895
vt -1.000001 0.396499
vt -1.400002 0.396499
vt 1.400000 0.396499
vt 1.000000 0.396499
vt 1.400000 0.460333
vt 1.800000 0.460333
vt 1.800000 0.763889
vt 1.400000 0.763889
vt 0.199999 0.460333
vt 0.600000 0.460333
vt 0.600000 0.763889
vt 0.199999 0.763889
vt 3.400001 0.460333
vt 3.800001 0.460333
vt 3.800001 0.763889
vt 3.400001 0.763889
vt 2.200000 0.460333
vt 2.600000 0.460333
vt 2.600000 0.763889
vt 2.200000 0.763889
vt 0.600000 0.460333
vt 1.000000 0.460333
vt 1.000000 0.763889
vt -1.800002 0.460333
vt -1.800002 0.763889
vt 1.800000 0.460333
vt 2.200000 0.460333
vt 3.000000 0.460333
vt 3.400001 0.460333
vt 3.000000 0.763889
vt -0.200001 0.460333
vt 0.199999 0.460333
vt -0.200001 0.763889
vt -0.600001 0.460333
vt -0.200001 0.460333
vt -0.600001 0.763889
vt -1.000001 0.396499
vt 1.400000 0.460333
vt 3.000000 0.460333
vt 1.000000 0.428416
vt 1.400000 0.428416
vt -1.400002 0.428416
vt -1.000001 0.428416
vt -0.200001 0.428416
vt 0.199999 0.428416
vt 3.000000 0.428416
vt 3.400001 0.428416
vt 1.800000 0.428416
vt 2.200000 0.428416
vt 0.600000 0.428416
vt -1.800002 0.428416
vt 2.600000 0.428416
vt 3.800001 0.428416
vt -1.000001 0.460333
vt -0.600001 0.428416
s 1
usemtl blimp
f 537/1/1 528/2/1 527/3/1 13/4/1
f 539/1/2 524/2/2 521/3/2 11/4/2
f 541/1/3 534/2/3 533/3/3 16/4/3
f 542/1/4 530/2/4 529/3/4 14/4/4
f 536/1/5 526/2/5 525/3/5 12/4/5
f 538/1/6 520/2/6 522/3/6 543/4/6
f 10/1/7 523/2/7 535/3/7 17/4/7
f 540/1/8 532/2/8 531/3/8 15/4/8
f 7/5/9 8/6/9 9/7/9
f 8/5/9 1/6/9 9/7/9
f 1/5/9 2/6/9 9/7/9
f 2/5/9 3/6/9 9/7/9
f 3/5/9 4/6/9 9/7/9
f 4/5/9 5/6/9 9/7/9
f 5/5/9 6/6/9 9/7/9
f 6/5/9 7/6/9 9/7/9
f 537/1/1 13/4/1 551/3/1 552/2/1
f 539/1/2 11/4/2 545/3/2 548/2/2
f 541/1/3 16/4/3 557/3/3 558/2/3
f 542/1/4 14/4/4 553/3/4 554/2/4
f 536/1/5 12/4/5 549/3/5 550/2/5
f 538/1/6 543/4/6 546/3/6 544/2/6
f 10/1/7 17/4/7 559/3/7 547/2/7
f 540/1/8 15/4/8 555/3/8 556/2/8
f 24/5/10 26/7/10 25/6/10
f 25/5/10 26/7/10 18/6/10
f 18/5/10 26/7/10 19/6/10
f 19/5/10 26/7/10 20/6/10
f 20/5/10 26/7/10 21/6/10
f 21/5/10 26/7/10 22/6/10
f 22/5/10 26/7/10 23/6/10
f 23/5/10 26/7/10 24/6/10
f 650/1/30 655/2/30 653/3/31 651/4/31
f 93/34/32 97/35/32 652/36/33 656/37/33
f 87/34/34 89/35/34 654/36/34 657/37/34
f 88/34/35 90/35/35 98/36/36 94/38/36
f 650/1/30 658/4/37 660/3/37 655/2/30
f 93/34/32 662/37/38 659/36/38 97/35/32
f 91/34/39 663/37/39 661/36/39 95/35/39
f 92/34/40 94/38/36 98/36/36 96/35/40
f 837/553/386 500/554/387 477/555/387 451/556/386
f 394/557/388 421/558/389 424/559/390 396/560/391
f 419/561/392 448/562/393 421/558/389 394/557/388
f 785/563/394 786/564/395 476/565/395 459/566/394
f 396/560/391 424/559/390 426/567/396 398/568/397
f 393/569/398 427/569/398 425/569/398
f 777/570/399 778/571/400 461/572/400 811/573/399
f 398/568/397 426/567/396 428/574/401 400/575/402
f 393/569/398 429/569/398 427/569/398
f 784/576/403 785/563/394 459/566/394 473/577/403
f 400/575/402 428/574/401 430/578/404 402/579/405
f 393/569/398 431/569/398 429/569/398
f 404/580/406 406/581/407 506/582/408 508/583/409
f 402/579/405 430/578/404 432/584/410 404/585/406
f 393/569/398 433/569/398 431/569/398
f 398/586/397 400/587/402 485/588/400 481/589/411
f 404/585/406 432/584/410 434/590/412 406/591/407
f 393/569/398 435/569/398 433/569/398
f 394/592/388 396/593/391 503/594/413 478/595/414
f 406/591/407 434/590/412 436/596/415 408/597/416
f 393/569/398 437/569/398 435/569/398
f 400/587/402 402/598/405 518/599/399 485/600/400
f 408/597/416 436/596/415 438/601/417 410/602/418
f 393/569/398 439/569/398 437/569/398
f 416/603/419 418/604/420 515/605/386 491/606/403
f 410/602/418 438/601/417 440/607/421 412/608/422
f 393/569/398 441/569/398 439/569/398
f 776/609/409 777/570/399 811/573/399 810/610/409
f 412/608/422 440/607/421 442/611/423 414/612/424
f 393/569/398 443/569/398 441/569/398
f 780/613/413 781/614/414 818/615/414 816/616/413
f 414/617/424 442/618/423 444/619/425 416/620/419
f 393/569/398 445/569/398 443/569/398
f 774/621/408 776/609/409 810/610/409 807/622/408
f 416/623/419 444/624/425 446/625/426 418/626/420
f 393/569/398 447/569/398 445/569/398
f 787/627/427 775/628/428 808/629/428 828/630/427
f 418/626/420 446/625/426 448/562/393 419/561/392
f 410/631/418 412/632/422 512/633/395 496/634/427
f 393/569/398 425/569/398 423/569/398
f 393/569/398 422/569/398 447/569/398
f 424/569/390 421/569/389 788/569/429 789/569/430
f 426/569/396 424/569/390 789/569/430 790/569/431
f 428/569/401 426/569/396 790/569/431 791/569/432
f 430/569/404 428/569/401 791/569/432 792/569/433
f 432/569/410 430/569/404 792/569/433 793/569/434
f 434/569/412 432/569/410 793/569/434 794/569/435
f 436/569/415 434/569/412 794/569/435 795/569/436
f 438/569/417 436/569/415 795/569/436 796/569/437
f 440/569/421 438/569/417 796/569/437 797/569/438
f 442/569/423 440/569/421 797/569/438 798/569/439
f 444/569/425 442/569/423 798/569/439 799/569/440
f 446/569/426 444/569/425 799/569/440 800/569/441
f 448/569/393 446/569/426 800/569/441 801/569/442
f 421/569/389 448/569/393 801/569/442 788/569/429
f 393/569/398 423/569/398 422/569/398
f 824/635/443 827/636/443 450/637/443 467/638/443
f 817/639/443 819/640/443 815/641/443 472/642/443
f 809/643/443 812/644/443 820/645/443 821/646/443
f 804/647/443 805/648/443 825/649/443 826/650/443
f 827/636/443 829/651/443 464/652/443 450/637/443
f 819/640/443 822/653/443 813/654/443 815/641/443
f 812/644/443 814/655/443 469/656/443 820/645/443
f 805/648/443 806/657/443 823/658/443 825/649/443
f 822/653/443 824/659/443 467/660/443 813/654/443
f 814/655/443 817/639/443 472/642/443 469/656/443
f 802/661/443 803/662/443 475/663/443 465/664/443
f 806/657/443 809/643/443 821/646/443 823/658/443
f 803/662/443 804/647/443 826/650/443 475/663/443
f 829/651/443 802/661/443 465/664/443 464/652/443
f 408/665/416 410/631/418 496/666/427 493/667/428
f 414/668/424 416/669/419 491/670/403 487/671/394
f 781/614/414 782/672/387 456/673/387 818/615/414
f 786/564/395 787/627/427 828/630/427 476/565/395
f 782/672/387 783/674/386 474/675/386 456/673/387
f 406/581/407 408/665/416 493/676/428 506/582/408
f 775/628/428 774/621/408 807/622/408 808/629/428
f 412/632/422 414/668/424 487/677/394 512/678/395
f 396/593/391 398/586/397 481/589/411 503/679/413
f 778/680/400 779/681/411 452/682/411 461/683/400
f 783/674/386 784/576/403 473/577/403 474/675/386
f 779/681/411 780/613/413 816/616/413 452/682/411
f 418/604/420 419/684/392 499/685/387 515/686/386
f 402/598/405 404/580/406 508/687/409 518/688/399
f 509/689/409 855/690/408 457/691/408 468/692/409
f 482/693/411 860/694/400 460/695/400 458/696/411
f 488/697/394 863/698/403 466/699/403 462/700/394
f 494/701/428 497/702/427 471/703/427 470/704/428
f 860/705/400 831/706/399 463/707/399 460/695/400
f 863/708/403 837/553/386 451/556/386 466/709/403
f 855/710/408 494/711/428 470/704/428 457/691/408
f 849/712/395 488/713/394 462/700/394 453/714/395
f 843/715/413 482/716/411 458/696/411 455/717/413
f 479/718/414 843/719/413 455/717/413 454/720/414
f 419/684/392 394/592/388 478/595/414 499/721/387
f 831/706/399 509/722/409 468/692/409 463/707/399
f 497/702/427 849/723/395 453/714/395 471/703/427
f 830/722/444 517/706/445 832/724/445 833/725/444
f 510/725/446 519/724/447 834/688/447 835/687/446
f 836/554/448 514/553/449 838/726/449 839/727/448
f 501/727/450 516/726/451 840/686/451 841/685/450
f 842/716/452 502/715/453 844/728/453 845/729/452
f 483/729/454 504/728/455 846/679/455 847/589/454
f 848/713/456 511/712/457 850/730/457 851/731/456
f 489/731/458 513/730/459 852/678/459 853/677/458
f 854/711/460 505/710/461 856/732/461 857/733/460
f 495/733/462 507/732/463 858/582/463 859/676/462
f 517/706/445 484/705/464 861/734/464 832/724/445
f 519/724/447 486/734/465 862/600/465 834/599/447
f 514/553/449 490/708/466 864/735/466 838/726/449
f 516/726/451 492/735/467 865/606/467 840/605/451
f 866/702/468 854/701/460 857/733/460 867/736/468
f 498/736/469 495/733/462 859/667/462 868/666/469
f 490/698/466 848/697/456 851/731/456 864/737/466
f 492/737/467 489/731/458 853/671/458 865/670/467
f 484/694/464 842/693/452 845/729/452 861/734/464
f 486/734/465 483/729/454 847/589/454 862/588/465
f 869/718/470 836/738/448 839/727/448 870/739/470
f 480/739/471 501/727/450 841/721/450 871/595/471
f 502/719/453 869/718/470 870/739/470 844/728/453
f 504/728/455 480/739/471 871/595/471 846/594/455
f 505/690/461 830/689/444 833/725/444 856/732/461
f 507/732/463 510/725/446 835/583/446 858/582/463
f 511/723/457 866/702/468 867/736/468 850/730/457
f 513/730/459 498/736/469 868/634/469 852/633/459
f 500/738/387 479/718/414 454/720/414 477/555/387
f 397/570/443 395/609/443 874/609/443 875/570/443
f 403/613/443 401/681/443 877/681/443 878/613/443
f 409/674/443 407/672/443 880/672/443 881/674/443
f 395/609/443 449/621/443 872/621/443 874/609/443
f 415/564/443 413/563/443 883/563/443 884/564/443
f 401/681/443 399/680/443 876/680/443 877/681/443
f 407/672/443 405/614/443 879/614/443 880/672/443
f 413/563/443 411/576/443 882/576/443 883/563/443
f 449/621/443 417/628/443 873/628/443 872/621/443
f 399/571/443 397/570/443 875/570/443 876/571/443
f 417/628/443 420/627/443 885/627/443 873/628/443
f 405/614/443 403/613/443 878/613/443 879/614/443
f 411/576/443 409/674/443 881/674/443 882/576/443
f 420/627/443 415/564/443 884/564/443 885/627/443
usemtl blimp
f 562/8/11 564/9/11 566/10/11 560/11/11
f 566/10/11 564/9/11 572/12/11
f 571/13/11 564/9/11 567/14/11 569/15/11
f 574/16/11 564/9/11 573/17/11
f 573/17/11 564/9/11 571/13/11
f 572/12/11 564/9/11 574/16/11
f 575/11/12 581/10/12 579/9/12 577/8/12
f 587/12/12 579/9/12 581/10/12
f 584/15/12 582/14/12 579/9/12 586/13/12
f 588/17/12 579/9/12 589/16/12
f 586/13/12 579/9/12 588/17/12
f 589/16/12 579/9/12 587/12/12
f 563/18/10 561/19/10 576/11/10 578/8/10
f 565/20/13 27/21/13 37/8/13 580/9/13
f 28/22/14 35/23/15 45/10/15 38/11/14
f 570/24/13 568/25/13 583/14/13 585/15/13
f 29/26/16 32/27/9 42/15/9 39/13/16
f 35/23/15 36/28/17 46/12/17 45/10/15
f 33/29/18 29/30/16 39/13/16 43/17/18
f 30/31/19 33/29/18 43/17/18 40/16/19
f 36/28/17 30/31/19 40/16/19 46/12/17
f 31/32/10 34/33/10 44/9/10 41/14/10
f 592/8/9 594/9/9 596/10/9 590/11/9
f 596/10/9 594/9/9 602/12/9
f 601/13/9 594/9/9 597/14/9 599/15/9
f 604/16/9 594/9/9 603/17/9
f 603/17/9 594/9/9 601/13/9
f 602/12/9 594/9/9 604/16/9
f 605/11/10 611/10/10 609/9/10 607/8/10
f 617/12/10 609/9/10 611/10/10
f 614/15/10 612/14/10 609/9/10 616/13/10
f 618/17/10 609/9/10 619/16/10
f 616/13/10 609/9/10 618/17/10
f 619/16/10 609/9/10 617/12/10
f 593/18/11 591/19/11 606/11/11 608/8/11
f 595/20/13 47/21/13 57/8/13 610/9/13
f 48/22/14 55/23/20 65/10/20 58/11/14
f 600/24/13 598/25/13 613/14/13 615/15/13
f 49/26/21 52/27/12 62/15/12 59/13/21
f 55/23/20 56/28/22 66/12/22 65/10/20
f 53/29/23 49/30/21 59/13/21 63/17/23
f 50/31/24 53/29/23 63/17/23 60/16/24
f 56/28/22 50/31/24 60/16/24 66/12/22
f 51/32/11 54/33/11 64/9/11 61/14/11
f 622/8/12 624/9/12 626/10/12 620/11/12
f 626/10/12 624/9/12 632/12/12
f 631/13/12 624/9/12 627/14/12 629/15/12
f 634/16/12 624/9/12 633/17/12
f 633/17/12 624/9/12 631/13/12
f 632/12/12 624/9/12 634/16/12
f 635/11/11 641/10/11 639/9/11 637/8/11
f 647/12/11 639/9/11 641/10/11
f 644/15/11 642/14/11 639/9/11 646/13/11
f 648/17/11 639/9/11 649/16/11
f 646/13/11 639/9/11 648/17/11
f 649/16/11 639/9/11 647/12/11
f 623/18/9 621/19/9 636/11/9 638/8/9
f 625/20/13 67/21/13 77/8/13 640/9/13
f 68/22/14 75/23/25 85/10/25 78/11/14
f 630/24/13 628/25/13 643/14/13 645/15/13
f 69/26/26 72/27/10 82/15/10 79/13/26
f 75/23/25 76/28/27 86/12/27 85/10/25
f 73/29/28 69/30/26 79/13/26 83/17/28
f 70/31/29 73/29/28 83/17/28 80/16/29
f 76/28/27 70/31/29 80/16/29 86/12/27
f 71/32/9 74/33/9 84/9/9 81/14/9
f 666/8/10 668/9/10 670/10/10 664/11/10
f 670/10/10 668/9/10 676/12/10
f 675/13/10 668/9/10 671/14/10 673/15/10
f 678/16/10 668/9/10 677/17/10
f 677/17/10 668/9/10 675/13/10
f 676/12/10 668/9/10 678/16/10
f 679/11/9 685/10/9 683/9/9 681/8/9
f 691/12/9 683/9/9 685/10/9
f 688/15/9 686/14/9 683/9/9 690/13/9
f 692/17/9 683/9/9 693/16/9
f 690/13/9 683/9/9 692/17/9
f 693/16/9 683/9/9 691/12/9
f 667/18/12 665/19/12 680/11/12 682/8/12
f 669/20/13 99/21/13 109/8/13 684/9/13
f 100/22/14 107/23/41 117/10/41 110/11/14
f 674/24/13 672/25/13 687/14/13 689/15/13
f 101/26/42 104/27/11 114/15/11 111/13/42
f 107/23/41 108/28/43 118/12/43 117/10/41
f 105/29/44 101/30/42 111/13/42 115/17/44
f 102/31/45 105/29/44 115/17/44 112/16/45
f 108/28/43 102/31/45 112/16/45 118/12/43
f 103/32/12 106/33/12 116/9/12 113/14/12
f 119/39/46 234/40/47 263/41/13
f 127/42/48 230/43/49 388/44/50 768/45/51
f 121/46/52 233/47/53 391/48/54 771/49/55
f 153/50/56 177/51/57 750/52/58 745/53/59
f 122/54/60 194/55/61 370/56/62 754/57/63
f 120/58/64 182/59/65 267/60/66 180/61/67
f 120/62/64 180/63/67 283/64/68 232/65/69
f 152/66/70 367/67/71 390/68/72 232/69/69
f 121/46/52 263/41/13 233/47/53
f 152/70/70 183/71/73 379/72/74 367/73/71
f 122/54/60 217/74/75 263/41/13
f 125/75/76 215/76/77 384/77/78 355/78/79
f 125/79/76 355/80/79 369/81/80 184/82/81
f 123/83/82 216/84/83 263/41/13
f 126/85/84 214/86/85 381/87/86 349/88/87
f 126/89/84 349/90/87 379/91/74 183/92/73
f 124/93/88 231/94/89 296/95/90 254/96/91
f 124/97/88 254/98/91 289/99/92 190/100/93
f 124/97/88 190/100/93 271/101/94 188/102/95
f 124/93/88 188/103/95 285/104/96 231/94/89
f 122/54/60 754/57/63 385/105/97 217/74/75
f 141/106/98 185/107/99 372/108/100 358/109/101
f 125/79/76 184/82/81 265/110/102 181/111/103
f 125/75/76 181/112/103 277/113/104 215/76/77
f 123/83/82 736/114/105 382/115/106 216/84/83
f 120/62/64 232/65/69 390/116/72 352/117/107
f 126/89/84 183/92/73 266/118/108 179/119/109
f 126/85/84 179/120/109 276/121/110 214/86/85
f 127/122/48 768/123/51 372/124/100 185/125/99
f 119/39/46 364/126/111 387/127/112 234/40/47
f 127/122/48 185/125/99 264/128/113 218/129/114
f 127/42/48 218/130/114 282/131/115 230/43/49
f 174/132/116 319/133/117 333/134/118 235/135/119
f 128/136/120 258/137/121 285/104/96 188/103/95
f 128/138/120 188/102/95 271/101/94 259/139/122
f 174/132/116 229/140/123 331/141/124 319/133/117
f 129/142/125 228/143/126 295/144/127 253/145/128
f 129/146/125 253/147/128 290/148/129 192/149/130
f 129/146/125 192/149/130 268/150/131 220/151/132
f 129/142/125 220/152/132 284/153/133 228/143/126
f 130/154/134 212/155/135 294/156/136 252/157/137
f 130/158/134 252/159/137 292/160/138 242/161/139
f 130/158/134 242/161/139 269/162/140 189/163/141
f 130/154/134 189/164/141 279/165/142 212/155/135
f 131/166/143 211/167/144 293/168/145 251/169/146
f 131/170/143 251/171/146 291/172/147 241/173/148
f 131/170/143 241/173/148 270/174/149 187/175/150
f 131/166/143 187/176/150 278/177/151 211/167/144
f 132/178/152 210/179/153 276/121/110 179/120/109
f 132/180/152 179/119/109 266/118/108 191/181/154
f 132/180/152 191/181/154 273/182/155 207/183/156
f 132/178/152 207/184/156 280/185/157 210/179/153
f 133/186/158 209/187/159 277/113/104 181/112/103
f 133/188/158 181/111/103 265/110/102 193/189/160
f 133/188/158 193/189/160 275/190/161 208/191/162
f 133/186/158 208/192/162 281/193/163 209/187/159
f 134/194/164 227/195/165 282/131/115 218/130/114
f 134/196/164 218/129/114 264/128/113 197/197/166
f 134/196/164 197/197/166 274/198/167 222/199/168
f 134/194/164 222/200/168 286/201/169 227/195/165
f 135/202/170 226/203/171 283/64/68 180/63/67
f 135/204/170 180/61/67 267/60/66 195/205/172
f 135/204/170 195/205/172 272/206/173 223/207/174
f 135/202/170 223/208/174 287/209/175 226/203/171
f 136/210/176 195/211/172 267/212/66 204/213/177
f 136/214/176 204/215/177 277/216/104 209/217/159
f 136/214/176 209/217/159 281/218/163 200/219/178
f 136/210/176 200/220/178 272/221/173 195/211/172
f 137/222/179 197/223/166 264/224/113 203/225/180
f 137/226/179 203/227/180 276/228/110 210/229/153
f 137/226/179 210/229/153 280/230/157 199/231/181
f 137/222/179 199/232/181 274/233/167 197/223/166
f 138/234/182 192/235/130 290/236/129 250/237/183
f 138/238/182 250/239/183 293/240/145 211/241/144
f 138/238/182 211/241/144 278/242/151 205/243/184
f 138/234/182 205/244/184 268/245/131 192/235/130
f 139/246/185 190/247/93 289/248/92 249/249/186
f 139/250/185 249/251/186 294/252/136 212/253/135
f 139/250/185 212/253/135 279/254/142 206/255/187
f 139/246/185 206/256/187 271/257/94 190/247/93
f 173/258/188 316/259/189 342/260/190 238/261/191
f 140/262/192 288/263/14 262/264/193
f 173/265/188 225/266/194 328/267/195 316/268/189
f 143/269/196 216/84/83 382/115/106 760/270/197
f 142/271/198 182/272/65 376/273/199 361/274/200
f 141/275/98 214/276/85 276/228/110 203/227/180
f 141/106/98 203/225/180 264/224/113 185/107/99
f 144/277/201 217/74/75 385/105/97 765/278/202
f 119/39/46 175/279/203 373/280/204 364/126/111
f 142/281/198 215/282/77 277/216/104 204/215/177
f 142/271/198 204/213/177 267/212/66 182/272/65
f 143/269/196 760/270/197 373/280/204 175/279/203
f 141/275/98 358/283/101 381/284/86 214/276/85
f 143/269/196 263/41/13 216/84/83
f 144/277/201 765/278/202 750/52/58 177/51/57
f 142/281/198 361/285/200 384/286/78 215/282/77
f 144/277/201 263/41/13 217/74/75
f 172/287/205 313/288/206 328/289/195 225/290/194
f 145/291/207 288/263/14 257/292/208
f 172/293/205 260/294/209 337/295/210 313/296/206
f 146/297/211 191/298/154 266/299/108 219/300/212
f 146/301/211 219/302/212 283/303/68 226/304/171
f 146/301/211 226/304/171 287/305/175 202/306/213
f 146/297/211 202/307/213 273/308/155 191/298/154
f 147/309/214 193/310/160 265/311/102 178/312/215
f 147/313/214 178/314/215 282/315/115 227/316/165
f 147/313/214 227/316/165 286/317/169 201/318/216
f 147/309/214 201/319/216 275/320/161 193/310/160
f 148/321/217 242/322/139 292/323/138 248/324/218
f 148/325/217 248/326/218 295/327/127 228/328/126
f 148/325/217 228/328/126 284/329/133 186/330/219
f 148/321/217 186/331/219 269/332/140 242/322/139
f 171/333/220 237/334/221 340/335/222 310/336/223
f 171/337/220 310/338/223 710/339/224 256/340/225
f 149/341/226 288/263/14 224/342/227
f 154/343/228 234/40/47 387/127/112 346/344/229
f 154/343/228 346/344/229 370/56/62 194/55/61
f 150/345/230 230/346/49 282/315/115 178/314/215
f 150/347/230 178/312/215 265/311/102 184/348/81
f 151/349/231 241/350/148 291/351/147 247/352/232
f 151/353/231 247/354/232 296/355/90 231/356/89
f 151/353/231 231/356/89 285/357/96 221/358/233
f 151/349/231 221/359/233 270/360/149 241/350/148
f 121/46/52 771/49/55 741/361/234 176/362/235
f 152/66/70 232/69/69 283/303/68 219/302/212
f 152/70/70 219/300/212 266/299/108 183/71/73
f 120/58/64 352/363/107 376/364/199 182/59/65
f 153/50/56 263/41/13 177/51/57
f 153/50/56 745/53/59 391/48/54 233/47/53
f 150/345/230 727/365/236 388/366/50 230/346/49
f 123/83/82 176/362/235 741/361/234 736/114/105
f 154/343/228 263/41/13 234/40/47
f 155/367/237 196/368/238 273/308/155 202/307/213
f 155/369/237 202/306/213 287/305/175 246/370/239
f 155/369/237 246/370/239 296/355/90 247/354/232
f 155/367/237 247/352/232 291/351/147 196/368/238
f 170/371/240 213/372/241 322/373/242 307/374/243
f 170/375/240 307/376/243 334/377/244 259/378/122
f 156/379/245 288/263/14 235/135/119
f 169/380/246 304/381/247 325/382/248 224/342/227
f 157/383/249 260/384/209 268/245/131 205/244/184
f 157/385/249 205/243/184 278/242/151 256/386/225
f 169/380/246 236/387/250 336/388/251 304/381/247
f 168/389/252 301/390/253 331/141/124 229/140/123
f 158/391/254 237/392/221 270/360/149 221/359/233
f 158/393/254 221/358/233 285/357/96 258/394/121
f 168/389/252 261/395/255 339/396/256 301/390/253
f 167/397/257 298/398/258 322/399/242 213/400/241
f 159/401/259 288/263/14 255/402/260
f 167/403/257 238/404/191 342/405/190 298/406/258
f 160/407/261 198/408/262 275/320/161 201/319/216
f 160/409/261 201/318/216 286/317/169 245/410/263
f 160/409/261 245/410/263 295/327/127 248/326/218
f 160/407/261 248/324/218 292/323/138 198/408/262
f 161/411/264 239/412/265 272/221/173 200/220/178
f 161/413/264 200/219/178 281/218/163 244/414/266
f 161/413/264 244/414/266 294/252/136 249/251/186
f 161/411/264 249/249/186 289/248/92 239/412/265
f 162/415/267 240/416/268 274/233/167 199/232/181
f 162/417/267 199/231/181 280/230/157 243/418/269
f 162/417/267 243/418/269 293/240/145 250/239/183
f 162/415/267 250/237/183 290/236/129 240/416/268
f 163/419/270 243/420/269 280/185/157 207/184/156
f 163/421/270 207/183/156 273/182/155 196/422/238
f 163/421/270 196/422/238 291/172/147 251/171/146
f 163/419/270 251/169/146 293/168/145 243/420/269
f 164/423/271 244/424/266 281/193/163 208/192/162
f 164/425/271 208/191/162 275/190/161 198/426/262
f 164/425/271 198/426/262 292/160/138 252/159/137
f 164/423/271 252/157/137 294/156/136 244/424/266
f 165/427/272 245/428/263 286/201/169 222/200/168
f 165/429/272 222/199/168 274/198/167 240/430/268
f 165/429/272 240/430/268 290/148/129 253/147/128
f 165/427/272 253/145/128 295/144/127 245/428/263
f 166/431/273 246/432/239 287/209/175 223/208/174
f 166/433/273 223/207/174 272/206/173 239/434/265
f 166/433/273 239/434/265 289/99/92 254/98/91
f 166/431/273 254/96/91 296/95/90 246/432/239
f 167/403/257 189/163/141 269/162/140 238/404/191
f 159/401/259 297/435/274 343/436/275 262/264/193
f 158/393/254 258/394/121 704/437/276 701/438/277
f 167/397/257 213/400/241 279/165/142 189/164/141
f 168/389/252 229/140/123 288/263/14
f 158/391/254 701/439/277 340/440/222 237/392/221
f 157/385/249 256/386/225 710/441/224 707/442/278
f 169/380/246 224/342/227 288/263/14
f 157/383/249 707/443/278 337/444/210 260/384/209
f 156/379/245 235/135/119 333/134/118 306/445/279
f 170/375/240 259/378/122 271/257/94 206/256/187
f 170/371/240 206/255/187 279/254/142 213/372/241
f 156/379/245 306/445/279 321/446/280 255/402/260
f 149/341/226 224/342/227 325/382/248 309/447/281
f 171/337/220 256/340/225 278/177/151 187/176/150
f 171/333/220 187/175/150 270/174/149 237/334/221
f 149/341/226 309/447/281 339/396/256 261/395/255
f 145/291/207 257/292/208 327/448/282 312/449/283
f 172/293/205 220/151/132 268/150/131 260/294/209
f 145/291/207 312/449/283 336/388/251 236/387/250
f 140/262/192 262/264/193 343/436/275 315/450/284
f 172/287/205 225/290/194 284/153/133 220/152/132
f 173/265/188 186/330/219 284/329/133 225/266/194
f 140/262/192 315/450/284 327/448/282 257/292/208
f 128/138/120 259/139/122 334/451/244 724/452/285
f 173/258/188 238/261/191 269/332/140 186/331/219
f 174/132/116 235/135/119 288/263/14
f 128/136/120 724/453/285 704/454/276 258/137/121
f 288/263/14 229/140/123 174/132/116
f 288/263/14 261/395/255 168/389/252
f 288/263/14 149/341/226 261/395/255
f 288/263/14 236/387/250 169/380/246
f 288/263/14 145/291/207 236/387/250
f 288/263/14 140/262/192 257/292/208
f 288/263/14 159/401/259 262/264/193
f 288/263/14 156/379/245 255/402/260
f 263/41/13 154/343/228 194/55/61
f 263/41/13 175/279/203 119/39/46
f 263/41/13 143/269/196 175/279/203
f 263/41/13 176/362/235 123/83/82
f 263/41/13 121/46/52 176/362/235
f 263/41/13 153/50/56 233/47/53
f 263/41/13 194/55/61 122/54/60
f 263/41/13 144/277/201 177/51/57
f 343/436/275 297/435/274 694/455/286 695/456/287
f 344/457/288 299/458/289 696/406/290 697/405/291
f 297/435/274 321/446/280 698/459/292 694/455/286
f 299/460/289 323/461/293 699/399/293 696/398/290
f 700/440/294 300/439/295 702/462/296 703/463/297
f 341/464/298 302/465/299 301/390/253 339/396/256
f 300/438/295 330/437/300 705/466/300 702/467/296
f 302/465/299 332/468/301 331/141/124 301/390/253
f 706/444/302 303/443/303 708/469/304 709/470/305
f 338/471/306 305/472/307 304/381/247 336/388/251
f 303/442/303 324/441/308 711/473/308 708/474/304
f 305/472/307 326/475/309 325/382/248 304/381/247
f 321/446/280 306/445/279 712/476/310 698/459/292
f 323/477/293 308/478/311 713/374/312 699/373/293
f 306/445/279 333/134/118 714/479/313 712/476/310
f 308/480/311 335/481/314 715/377/315 713/376/312
f 339/396/256 309/447/281 716/482/316 341/464/298
f 703/483/297 311/484/317 717/336/318 700/335/294
f 309/447/281 325/382/248 326/475/309 716/482/316
f 311/485/317 711/486/308 324/339/308 717/338/318
f 336/388/251 312/449/283 718/487/319 338/471/306
f 709/488/305 314/489/320 719/296/321 706/295/302
f 312/449/283 327/448/282 720/490/322 718/487/319
f 314/491/320 329/492/323 721/289/323 719/288/321
f 327/448/282 315/450/284 722/493/324 720/490/322
f 329/494/323 317/495/325 723/268/326 721/267/323
f 315/450/284 343/436/275 695/456/287 722/493/324
f 317/496/325 344/497/288 697/260/291 723/259/326
f 330/454/300 318/453/327 725/498/328 705/499/300
f 332/468/301 320/500/329 319/133/117 331/141/124
f 318/452/327 715/451/315 335/501/314 725/502/328
f 320/500/329 714/479/313 333/134/118 319/133/117
f 159/401/259 255/402/260 321/446/280 297/435/274
f 726/366/330 345/365/331 728/503/332 729/504/330
f 389/505/333 347/506/334 730/344/335 731/127/333
f 345/507/331 732/508/336 733/509/337 728/510/332
f 347/506/334 371/511/338 734/56/339 730/344/335
f 735/115/340 348/114/341 737/512/342 738/513/340
f 383/514/343 350/515/344 739/88/345 740/87/343
f 348/114/341 378/361/346 742/516/347 737/512/342
f 350/517/344 380/518/348 743/91/349 739/90/345
f 744/48/350 351/53/351 746/519/352 747/520/350
f 392/521/353 353/522/354 748/117/355 749/116/353
f 351/53/351 375/52/356 751/523/357 746/519/352
f 353/524/354 377/525/358 752/364/359 748/363/355
f 753/105/360 354/57/361 755/526/362 756/527/360
f 386/528/363 356/529/364 757/78/365 758/77/363
f 354/57/361 734/56/339 371/511/338 755/526/362
f 356/530/364 733/531/337 732/81/336 757/80/365
f 759/280/366 357/270/367 761/532/368 762/533/369
f 374/534/370 359/535/371 763/109/372 764/108/373
f 357/270/367 735/115/340 738/513/340 761/532/368
f 359/536/371 383/537/343 740/284/343 763/283/372
f 375/52/356 360/278/374 766/538/375 751/523/357
f 377/539/358 362/540/376 767/274/377 752/273/359
f 360/278/374 753/105/360 756/527/360 766/538/375
f 362/541/376 386/542/363 758/286/363 767/285/377
f 764/124/373 363/123/378 769/543/379 374/544/370
f 762/533/369 365/545/380 770/126/381 759/280/366
f 363/45/378 726/44/330 729/546/330 769/547/379
f 365/545/380 389/505/333 731/127/333 770/126/381
f 378/361/346 366/49/382 772/548/383 742/516/347
f 380/549/348 368/550/384 773/73/385 743/72/349
f 366/49/382 744/48/350 747/520/350 772/548/383
f 368/551/384 392/552/353 749/68/353 773/67/385
f 150/347/230 184/348/81 369/508/80 727/507/236
